<?xml version="1.0" encoding="UTF-8" standalone="no"?>
<svg width="155.41mm" height="36.01mm" viewBox="127.73 548.39 2720.92 630.47"
 xmlns="http://www.w3.org/2000/svg" xmlns:xlink="http://www.w3.org/1999/xlink" version="1.2" baseProfile="tiny">
<title>1b628e154c0e</title>
<desc>Generated by MuseScore 3.2.3</desc>
<polyline class="StaffLines" fill="none" stroke="#000000" stroke-width="1.98" stroke-linejoin="bevel" points="141.732,563.386 2834.65,563.386"/>
<polyline class="StaffLines" fill="none" stroke="#000000" stroke-width="1.98" stroke-linejoin="bevel" points="141.732,588.189 2834.65,588.189"/>
<polyline class="StaffLines" fill="none" stroke="#000000" stroke-width="1.98" stroke-linejoin="bevel" points="141.732,612.992 2834.65,612.992"/>
<polyline class="StaffLines" fill="none" stroke="#000000" stroke-width="1.98" stroke-linejoin="bevel" points="141.732,637.795 2834.65,637.795"/>
<polyline class="StaffLines" fill="none" stroke="#000000" stroke-width="1.98" stroke-linejoin="bevel" points="141.732,662.598 2834.65,662.598"/>
<polyline class="StaffLines" fill="none" stroke="#000000" stroke-width="1.98" stroke-linejoin="bevel" points="141.732,1034.65 2834.65,1034.65"/>
<polyline class="StaffLines" fill="none" stroke="#000000" stroke-width="1.98" stroke-linejoin="bevel" points="141.732,1059.45 2834.65,1059.45"/>
<polyline class="StaffLines" fill="none" stroke="#000000" stroke-width="1.98" stroke-linejoin="bevel" points="141.732,1084.25 2834.65,1084.25"/>
<polyline class="StaffLines" fill="none" stroke="#000000" stroke-width="1.98" stroke-linejoin="bevel" points="141.732,1109.06 2834.65,1109.06"/>
<polyline class="StaffLines" fill="none" stroke="#000000" stroke-width="1.98" stroke-linejoin="bevel" points="141.732,1133.86 2834.65,1133.86"/>
<polyline class="BarLine" fill="none" stroke="#000000" stroke-width="3.97" stroke-linejoin="bevel" points="929.275,562.394 929.275,663.591"/>
<polyline class="BarLine" fill="none" stroke="#000000" stroke-width="3.97" stroke-linejoin="bevel" points="1587.49,562.394 1587.49,663.591"/>
<polyline class="BarLine" fill="none" stroke="#000000" stroke-width="3.97" stroke-linejoin="bevel" points="2240.9,562.394 2240.9,663.591"/>
<polyline class="BarLine" fill="none" stroke="#000000" stroke-width="3.97" stroke-linejoin="bevel" points="2832.66,562.394 2832.66,663.591"/>
<polyline class="BarLine" fill="none" stroke="#000000" stroke-width="3.97" stroke-linejoin="bevel" points="971.575,1033.65 971.575,1134.85"/>
<polyline class="BarLine" fill="none" stroke="#000000" stroke-width="3.97" stroke-linejoin="bevel" points="1559.37,1033.65 1559.37,1134.85"/>
<polyline class="BarLine" fill="none" stroke="#000000" stroke-width="3.97" stroke-linejoin="bevel" points="2218.09,1033.65 2218.09,1134.85"/>
<polyline class="BarLine" fill="none" stroke="#000000" stroke-width="3.97" stroke-linejoin="bevel" points="2810.34,1033.65 2810.34,1134.85"/>
<polyline class="BarLine" fill="none" stroke="#000000" stroke-width="12.40" stroke-linejoin="bevel" points="2828.44,1033.65 2828.44,1134.85"/>
<polyline class="Stem" fill="none" stroke="#000000" stroke-width="3.22" stroke-linecap="round" stroke-linejoin="bevel" points="299.457,617.651 299.457,690.502"/>
<polyline class="Stem" fill="none" stroke="#000000" stroke-width="3.22" stroke-linecap="round" stroke-linejoin="bevel" points="547.496,617.651 547.496,687.402"/>
<polyline class="Stem" fill="none" stroke="#000000" stroke-width="3.22" stroke-linecap="round" stroke-linejoin="bevel" points="674.632,617.651 674.632,687.402"/>
<polyline class="Stem" fill="none" stroke="#000000" stroke-width="3.22" stroke-linecap="round" stroke-linejoin="bevel" points="801.767,617.651 801.767,687.402"/>
<polyline class="Stem" fill="none" stroke="#000000" stroke-width="3.22" stroke-linecap="round" stroke-linejoin="bevel" points="957.674,617.651 957.674,687.402"/>
<polyline class="Stem" fill="none" stroke="#000000" stroke-width="3.22" stroke-linecap="round" stroke-linejoin="bevel" points="1084.81,617.651 1084.81,687.402"/>
<polyline class="Stem" fill="none" stroke="#000000" stroke-width="3.22" stroke-linecap="round" stroke-linejoin="bevel" points="1211.95,617.651 1211.95,687.402"/>
<polyline class="Stem" fill="none" stroke="#000000" stroke-width="3.22" stroke-linecap="round" stroke-linejoin="bevel" points="1339.08,617.651 1339.08,690.502"/>
<polyline class="Stem" fill="none" stroke="#000000" stroke-width="3.22" stroke-linecap="round" stroke-linejoin="bevel" points="1863.45,617.651 1863.45,687.402"/>
<polyline class="Stem" fill="none" stroke="#000000" stroke-width="3.22" stroke-linecap="round" stroke-linejoin="bevel" points="1989.14,617.651 1989.14,687.402"/>
<polyline class="Stem" fill="none" stroke="#000000" stroke-width="3.22" stroke-linecap="round" stroke-linejoin="bevel" points="2114.84,617.651 2114.84,687.402"/>
<polyline class="Stem" fill="none" stroke="#000000" stroke-width="3.22" stroke-linecap="round" stroke-linejoin="bevel" points="2269.3,617.651 2269.3,690.502"/>
<polyline class="Stem" fill="none" stroke="#000000" stroke-width="3.22" stroke-linecap="round" stroke-linejoin="bevel" points="2550.8,617.651 2550.8,690.502"/>
<polyline class="Stem" fill="none" stroke="#000000" stroke-width="3.22" stroke-linecap="round" stroke-linejoin="bevel" points="274.801,1088.91 274.801,1158.66"/>
<polyline class="Stem" fill="none" stroke="#000000" stroke-width="3.22" stroke-linecap="round" stroke-linejoin="bevel" points="390.868,1088.91 390.868,1158.66"/>
<polyline class="Stem" fill="none" stroke="#000000" stroke-width="3.22" stroke-linecap="round" stroke-linejoin="bevel" points="506.935,1088.91 506.935,1158.66"/>
<polyline class="Stem" fill="none" stroke="#000000" stroke-width="3.22" stroke-linecap="round" stroke-linejoin="bevel" points="623.002,1088.91 623.002,1158.66"/>
<polyline class="Stem" fill="none" stroke="#000000" stroke-width="3.22" stroke-linecap="round" stroke-linejoin="bevel" points="739.069,1088.91 739.069,1158.66"/>
<polyline class="Stem" fill="none" stroke="#000000" stroke-width="3.22" stroke-linecap="round" stroke-linejoin="bevel" points="855.136,1088.91 855.136,1158.66"/>
<polyline class="Stem" fill="none" stroke="#000000" stroke-width="3.22" stroke-linecap="round" stroke-linejoin="bevel" points="999.975,1088.91 999.975,1161.76"/>
<polyline class="Stem" fill="none" stroke="#000000" stroke-width="3.22" stroke-linecap="round" stroke-linejoin="bevel" points="1587.77,1088.91 1587.77,1158.66"/>
<polyline class="Stem" fill="none" stroke="#000000" stroke-width="3.22" stroke-linecap="round" stroke-linejoin="bevel" points="1715.01,1088.91 1715.01,1158.66"/>
<polyline class="Stem" fill="none" stroke="#000000" stroke-width="3.22" stroke-linecap="round" stroke-linejoin="bevel" points="1842.24,1088.91 1842.24,1158.66"/>
<polyline class="Stem" fill="none" stroke="#000000" stroke-width="3.22" stroke-linecap="round" stroke-linejoin="bevel" points="1969.48,1088.91 1969.48,1161.76"/>
<polyline class="Stem" fill="none" stroke="#000000" stroke-width="3.22" stroke-linecap="round" stroke-linejoin="bevel" points="2246.48,1088.91 2246.48,1161.76"/>
<polyline class="Stem" fill="none" stroke="#000000" stroke-width="3.22" stroke-linecap="round" stroke-linejoin="bevel" points="2528.23,1088.91 2528.23,1161.76"/>
<path class="Note" transform="matrix(0.992126,0,0,0.992126,297.845,612.992)" d="M21.9688,-13.7656 C25.0938,-13.7656 27.6979,-12.9844 29.7813,-11.4219 C31.8646,-9.85938 32.9063,-7.61458 32.9063,-4.6875 C32.9063,-0.197917 30.5807,4 25.9297,7.90625 C21.2786,11.8125 16.2813,13.7656 10.9375,13.7656 C7.8125,13.7656 5.17708,12.9531 3.03125,11.3281 C1.01042,9.56771 0,7.35417 0,4.6875 C0,0.322917 2.3125,-3.84375 6.9375,-7.8125 C11.5625,-11.7813 16.5729,-13.7656 21.9688,-13.7656"/>
<path class="Note" transform="matrix(0.992126,0,0,0.992126,545.884,612.992)" d="M21.9688,-13.7656 C25.0938,-13.7656 27.6979,-12.9844 29.7813,-11.4219 C31.8646,-9.85938 32.9063,-7.61458 32.9063,-4.6875 C32.9063,-0.197917 30.5807,4 25.9297,7.90625 C21.2786,11.8125 16.2813,13.7656 10.9375,13.7656 C7.8125,13.7656 5.17708,12.9531 3.03125,11.3281 C1.01042,9.56771 0,7.35417 0,4.6875 C0,0.322917 2.3125,-3.84375 6.9375,-7.8125 C11.5625,-11.7813 16.5729,-13.7656 21.9688,-13.7656"/>
<path class="Note" transform="matrix(0.992126,0,0,0.992126,673.019,612.992)" d="M21.9688,-13.7656 C25.0938,-13.7656 27.6979,-12.9844 29.7813,-11.4219 C31.8646,-9.85938 32.9063,-7.61458 32.9063,-4.6875 C32.9063,-0.197917 30.5807,4 25.9297,7.90625 C21.2786,11.8125 16.2813,13.7656 10.9375,13.7656 C7.8125,13.7656 5.17708,12.9531 3.03125,11.3281 C1.01042,9.56771 0,7.35417 0,4.6875 C0,0.322917 2.3125,-3.84375 6.9375,-7.8125 C11.5625,-11.7813 16.5729,-13.7656 21.9688,-13.7656"/>
<path class="Note" transform="matrix(0.992126,0,0,0.992126,800.155,612.992)" d="M21.9688,-13.7656 C25.0938,-13.7656 27.6979,-12.9844 29.7813,-11.4219 C31.8646,-9.85938 32.9063,-7.61458 32.9063,-4.6875 C32.9063,-0.197917 30.5807,4 25.9297,7.90625 C21.2786,11.8125 16.2813,13.7656 10.9375,13.7656 C7.8125,13.7656 5.17708,12.9531 3.03125,11.3281 C1.01042,9.56771 0,7.35417 0,4.6875 C0,0.322917 2.3125,-3.84375 6.9375,-7.8125 C11.5625,-11.7813 16.5729,-13.7656 21.9688,-13.7656"/>
<path class="Note" transform="matrix(0.992126,0,0,0.992126,956.062,612.992)" d="M21.9688,-13.7656 C25.0938,-13.7656 27.6979,-12.9844 29.7813,-11.4219 C31.8646,-9.85938 32.9063,-7.61458 32.9063,-4.6875 C32.9063,-0.197917 30.5807,4 25.9297,7.90625 C21.2786,11.8125 16.2813,13.7656 10.9375,13.7656 C7.8125,13.7656 5.17708,12.9531 3.03125,11.3281 C1.01042,9.56771 0,7.35417 0,4.6875 C0,0.322917 2.3125,-3.84375 6.9375,-7.8125 C11.5625,-11.7813 16.5729,-13.7656 21.9688,-13.7656"/>
<path class="Note" transform="matrix(0.992126,0,0,0.992126,1083.2,612.992)" d="M21.9688,-13.7656 C25.0938,-13.7656 27.6979,-12.9844 29.7813,-11.4219 C31.8646,-9.85938 32.9063,-7.61458 32.9063,-4.6875 C32.9063,-0.197917 30.5807,4 25.9297,7.90625 C21.2786,11.8125 16.2813,13.7656 10.9375,13.7656 C7.8125,13.7656 5.17708,12.9531 3.03125,11.3281 C1.01042,9.56771 0,7.35417 0,4.6875 C0,0.322917 2.3125,-3.84375 6.9375,-7.8125 C11.5625,-11.7813 16.5729,-13.7656 21.9688,-13.7656"/>
<path class="Note" transform="matrix(0.992126,0,0,0.992126,1210.33,612.992)" d="M21.9688,-13.7656 C25.0938,-13.7656 27.6979,-12.9844 29.7813,-11.4219 C31.8646,-9.85938 32.9063,-7.61458 32.9063,-4.6875 C32.9063,-0.197917 30.5807,4 25.9297,7.90625 C21.2786,11.8125 16.2813,13.7656 10.9375,13.7656 C7.8125,13.7656 5.17708,12.9531 3.03125,11.3281 C1.01042,9.56771 0,7.35417 0,4.6875 C0,0.322917 2.3125,-3.84375 6.9375,-7.8125 C11.5625,-11.7813 16.5729,-13.7656 21.9688,-13.7656"/>
<path class="Note" transform="matrix(0.992126,0,0,0.992126,1337.47,612.992)" d="M21.9688,-13.7656 C25.0938,-13.7656 27.6979,-12.9844 29.7813,-11.4219 C31.8646,-9.85938 32.9063,-7.61458 32.9063,-4.6875 C32.9063,-0.197917 30.5807,4 25.9297,7.90625 C21.2786,11.8125 16.2813,13.7656 10.9375,13.7656 C7.8125,13.7656 5.17708,12.9531 3.03125,11.3281 C1.01042,9.56771 0,7.35417 0,4.6875 C0,0.322917 2.3125,-3.84375 6.9375,-7.8125 C11.5625,-11.7813 16.5729,-13.7656 21.9688,-13.7656"/>
<path class="Note" transform="matrix(0.992126,0,0,0.992126,1861.83,612.992)" d="M21.9688,-13.7656 C25.0938,-13.7656 27.6979,-12.9844 29.7813,-11.4219 C31.8646,-9.85938 32.9063,-7.61458 32.9063,-4.6875 C32.9063,-0.197917 30.5807,4 25.9297,7.90625 C21.2786,11.8125 16.2813,13.7656 10.9375,13.7656 C7.8125,13.7656 5.17708,12.9531 3.03125,11.3281 C1.01042,9.56771 0,7.35417 0,4.6875 C0,0.322917 2.3125,-3.84375 6.9375,-7.8125 C11.5625,-11.7813 16.5729,-13.7656 21.9688,-13.7656"/>
<path class="Note" transform="matrix(0.992126,0,0,0.992126,1987.53,612.992)" d="M21.9688,-13.7656 C25.0938,-13.7656 27.6979,-12.9844 29.7813,-11.4219 C31.8646,-9.85938 32.9063,-7.61458 32.9063,-4.6875 C32.9063,-0.197917 30.5807,4 25.9297,7.90625 C21.2786,11.8125 16.2813,13.7656 10.9375,13.7656 C7.8125,13.7656 5.17708,12.9531 3.03125,11.3281 C1.01042,9.56771 0,7.35417 0,4.6875 C0,0.322917 2.3125,-3.84375 6.9375,-7.8125 C11.5625,-11.7813 16.5729,-13.7656 21.9688,-13.7656"/>
<path class="Note" transform="matrix(0.992126,0,0,0.992126,2113.22,612.992)" d="M21.9688,-13.7656 C25.0938,-13.7656 27.6979,-12.9844 29.7813,-11.4219 C31.8646,-9.85938 32.9063,-7.61458 32.9063,-4.6875 C32.9063,-0.197917 30.5807,4 25.9297,7.90625 C21.2786,11.8125 16.2813,13.7656 10.9375,13.7656 C7.8125,13.7656 5.17708,12.9531 3.03125,11.3281 C1.01042,9.56771 0,7.35417 0,4.6875 C0,0.322917 2.3125,-3.84375 6.9375,-7.8125 C11.5625,-11.7813 16.5729,-13.7656 21.9688,-13.7656"/>
<path class="Note" transform="matrix(0.992126,0,0,0.992126,2267.69,612.992)" d="M21.9688,-13.7656 C25.0938,-13.7656 27.6979,-12.9844 29.7813,-11.4219 C31.8646,-9.85938 32.9063,-7.61458 32.9063,-4.6875 C32.9063,-0.197917 30.5807,4 25.9297,7.90625 C21.2786,11.8125 16.2813,13.7656 10.9375,13.7656 C7.8125,13.7656 5.17708,12.9531 3.03125,11.3281 C1.01042,9.56771 0,7.35417 0,4.6875 C0,0.322917 2.3125,-3.84375 6.9375,-7.8125 C11.5625,-11.7813 16.5729,-13.7656 21.9688,-13.7656"/>
<path class="Note" transform="matrix(0.992126,0,0,0.992126,2549.18,612.992)" d="M21.9688,-13.7656 C25.0938,-13.7656 27.6979,-12.9844 29.7813,-11.4219 C31.8646,-9.85938 32.9063,-7.61458 32.9063,-4.6875 C32.9063,-0.197917 30.5807,4 25.9297,7.90625 C21.2786,11.8125 16.2813,13.7656 10.9375,13.7656 C7.8125,13.7656 5.17708,12.9531 3.03125,11.3281 C1.01042,9.56771 0,7.35417 0,4.6875 C0,0.322917 2.3125,-3.84375 6.9375,-7.8125 C11.5625,-11.7813 16.5729,-13.7656 21.9688,-13.7656"/>
<path class="Note" transform="matrix(0.992126,0,0,0.992126,273.189,1084.25)" d="M21.9688,-13.7656 C25.0938,-13.7656 27.6979,-12.9844 29.7813,-11.4219 C31.8646,-9.85938 32.9063,-7.61458 32.9063,-4.6875 C32.9063,-0.197917 30.5807,4 25.9297,7.90625 C21.2786,11.8125 16.2813,13.7656 10.9375,13.7656 C7.8125,13.7656 5.17708,12.9531 3.03125,11.3281 C1.01042,9.56771 0,7.35417 0,4.6875 C0,0.322917 2.3125,-3.84375 6.9375,-7.8125 C11.5625,-11.7813 16.5729,-13.7656 21.9688,-13.7656"/>
<path class="Note" transform="matrix(0.992126,0,0,0.992126,389.256,1084.25)" d="M21.9688,-13.7656 C25.0938,-13.7656 27.6979,-12.9844 29.7813,-11.4219 C31.8646,-9.85938 32.9063,-7.61458 32.9063,-4.6875 C32.9063,-0.197917 30.5807,4 25.9297,7.90625 C21.2786,11.8125 16.2813,13.7656 10.9375,13.7656 C7.8125,13.7656 5.17708,12.9531 3.03125,11.3281 C1.01042,9.56771 0,7.35417 0,4.6875 C0,0.322917 2.3125,-3.84375 6.9375,-7.8125 C11.5625,-11.7813 16.5729,-13.7656 21.9688,-13.7656"/>
<path class="Note" transform="matrix(0.992126,0,0,0.992126,505.323,1084.25)" d="M21.9688,-13.7656 C25.0938,-13.7656 27.6979,-12.9844 29.7813,-11.4219 C31.8646,-9.85938 32.9063,-7.61458 32.9063,-4.6875 C32.9063,-0.197917 30.5807,4 25.9297,7.90625 C21.2786,11.8125 16.2813,13.7656 10.9375,13.7656 C7.8125,13.7656 5.17708,12.9531 3.03125,11.3281 C1.01042,9.56771 0,7.35417 0,4.6875 C0,0.322917 2.3125,-3.84375 6.9375,-7.8125 C11.5625,-11.7813 16.5729,-13.7656 21.9688,-13.7656"/>
<path class="Note" transform="matrix(0.992126,0,0,0.992126,621.39,1084.25)" d="M21.9688,-13.7656 C25.0938,-13.7656 27.6979,-12.9844 29.7813,-11.4219 C31.8646,-9.85938 32.9063,-7.61458 32.9063,-4.6875 C32.9063,-0.197917 30.5807,4 25.9297,7.90625 C21.2786,11.8125 16.2813,13.7656 10.9375,13.7656 C7.8125,13.7656 5.17708,12.9531 3.03125,11.3281 C1.01042,9.56771 0,7.35417 0,4.6875 C0,0.322917 2.3125,-3.84375 6.9375,-7.8125 C11.5625,-11.7813 16.5729,-13.7656 21.9688,-13.7656"/>
<path class="Note" transform="matrix(0.992126,0,0,0.992126,737.457,1084.25)" d="M21.9688,-13.7656 C25.0938,-13.7656 27.6979,-12.9844 29.7813,-11.4219 C31.8646,-9.85938 32.9063,-7.61458 32.9063,-4.6875 C32.9063,-0.197917 30.5807,4 25.9297,7.90625 C21.2786,11.8125 16.2813,13.7656 10.9375,13.7656 C7.8125,13.7656 5.17708,12.9531 3.03125,11.3281 C1.01042,9.56771 0,7.35417 0,4.6875 C0,0.322917 2.3125,-3.84375 6.9375,-7.8125 C11.5625,-11.7813 16.5729,-13.7656 21.9688,-13.7656"/>
<path class="Note" transform="matrix(0.992126,0,0,0.992126,853.524,1084.25)" d="M21.9688,-13.7656 C25.0938,-13.7656 27.6979,-12.9844 29.7813,-11.4219 C31.8646,-9.85938 32.9063,-7.61458 32.9063,-4.6875 C32.9063,-0.197917 30.5807,4 25.9297,7.90625 C21.2786,11.8125 16.2813,13.7656 10.9375,13.7656 C7.8125,13.7656 5.17708,12.9531 3.03125,11.3281 C1.01042,9.56771 0,7.35417 0,4.6875 C0,0.322917 2.3125,-3.84375 6.9375,-7.8125 C11.5625,-11.7813 16.5729,-13.7656 21.9688,-13.7656"/>
<path class="Note" transform="matrix(0.992126,0,0,0.992126,998.362,1084.25)" d="M21.9688,-13.7656 C25.0938,-13.7656 27.6979,-12.9844 29.7813,-11.4219 C31.8646,-9.85938 32.9063,-7.61458 32.9063,-4.6875 C32.9063,-0.197917 30.5807,4 25.9297,7.90625 C21.2786,11.8125 16.2813,13.7656 10.9375,13.7656 C7.8125,13.7656 5.17708,12.9531 3.03125,11.3281 C1.01042,9.56771 0,7.35417 0,4.6875 C0,0.322917 2.3125,-3.84375 6.9375,-7.8125 C11.5625,-11.7813 16.5729,-13.7656 21.9688,-13.7656"/>
<path class="Note" transform="matrix(0.992126,0,0,0.992126,1586.16,1084.25)" d="M21.9688,-13.7656 C25.0938,-13.7656 27.6979,-12.9844 29.7813,-11.4219 C31.8646,-9.85938 32.9063,-7.61458 32.9063,-4.6875 C32.9063,-0.197917 30.5807,4 25.9297,7.90625 C21.2786,11.8125 16.2813,13.7656 10.9375,13.7656 C7.8125,13.7656 5.17708,12.9531 3.03125,11.3281 C1.01042,9.56771 0,7.35417 0,4.6875 C0,0.322917 2.3125,-3.84375 6.9375,-7.8125 C11.5625,-11.7813 16.5729,-13.7656 21.9688,-13.7656"/>
<path class="Note" transform="matrix(0.992126,0,0,0.992126,1713.39,1084.25)" d="M21.9688,-13.7656 C25.0938,-13.7656 27.6979,-12.9844 29.7813,-11.4219 C31.8646,-9.85938 32.9063,-7.61458 32.9063,-4.6875 C32.9063,-0.197917 30.5807,4 25.9297,7.90625 C21.2786,11.8125 16.2813,13.7656 10.9375,13.7656 C7.8125,13.7656 5.17708,12.9531 3.03125,11.3281 C1.01042,9.56771 0,7.35417 0,4.6875 C0,0.322917 2.3125,-3.84375 6.9375,-7.8125 C11.5625,-11.7813 16.5729,-13.7656 21.9688,-13.7656"/>
<path class="Note" transform="matrix(0.992126,0,0,0.992126,1840.63,1084.25)" d="M21.9688,-13.7656 C25.0938,-13.7656 27.6979,-12.9844 29.7813,-11.4219 C31.8646,-9.85938 32.9063,-7.61458 32.9063,-4.6875 C32.9063,-0.197917 30.5807,4 25.9297,7.90625 C21.2786,11.8125 16.2813,13.7656 10.9375,13.7656 C7.8125,13.7656 5.17708,12.9531 3.03125,11.3281 C1.01042,9.56771 0,7.35417 0,4.6875 C0,0.322917 2.3125,-3.84375 6.9375,-7.8125 C11.5625,-11.7813 16.5729,-13.7656 21.9688,-13.7656"/>
<path class="Note" transform="matrix(0.992126,0,0,0.992126,1967.87,1084.25)" d="M21.9688,-13.7656 C25.0938,-13.7656 27.6979,-12.9844 29.7813,-11.4219 C31.8646,-9.85938 32.9063,-7.61458 32.9063,-4.6875 C32.9063,-0.197917 30.5807,4 25.9297,7.90625 C21.2786,11.8125 16.2813,13.7656 10.9375,13.7656 C7.8125,13.7656 5.17708,12.9531 3.03125,11.3281 C1.01042,9.56771 0,7.35417 0,4.6875 C0,0.322917 2.3125,-3.84375 6.9375,-7.8125 C11.5625,-11.7813 16.5729,-13.7656 21.9688,-13.7656"/>
<path class="Note" transform="matrix(0.992126,0,0,0.992126,2244.87,1084.25)" d="M21.9688,-13.7656 C25.0938,-13.7656 27.6979,-12.9844 29.7813,-11.4219 C31.8646,-9.85938 32.9063,-7.61458 32.9063,-4.6875 C32.9063,-0.197917 30.5807,4 25.9297,7.90625 C21.2786,11.8125 16.2813,13.7656 10.9375,13.7656 C7.8125,13.7656 5.17708,12.9531 3.03125,11.3281 C1.01042,9.56771 0,7.35417 0,4.6875 C0,0.322917 2.3125,-3.84375 6.9375,-7.8125 C11.5625,-11.7813 16.5729,-13.7656 21.9688,-13.7656"/>
<path class="Note" transform="matrix(0.992126,0,0,0.992126,2526.61,1084.25)" d="M21.9688,-13.7656 C25.0938,-13.7656 27.6979,-12.9844 29.7813,-11.4219 C31.8646,-9.85938 32.9063,-7.61458 32.9063,-4.6875 C32.9063,-0.197917 30.5807,4 25.9297,7.90625 C21.2786,11.8125 16.2813,13.7656 10.9375,13.7656 C7.8125,13.7656 5.17708,12.9531 3.03125,11.3281 C1.01042,9.56771 0,7.35417 0,4.6875 C0,0.322917 2.3125,-3.84375 6.9375,-7.8125 C11.5625,-11.7813 16.5729,-13.7656 21.9688,-13.7656"/>
<path class="Clef" transform="matrix(0.992126,0,0,0.992126,161.575,612.992)" d="M49.0313,25 L39.8438,25 C39.125,25 38.7656,24.6771 38.7656,24.0313 L38.7656,-24.0313 C38.7656,-24.6771 39.125,-25 39.8438,-25 L49.0313,-25 C49.6771,-25 50,-24.6771 50,-24.0313 L50,24.0313 C50,24.6771 49.6771,25 49.0313,25 M26.9531,25 L17.6719,25 C17.026,25 16.7031,24.6771 16.7031,24.0313 L16.7031,-24.0313 C16.7031,-24.6771 17.026,-25 17.6719,-25 L26.9531,-25 C27.6719,-25 28.0313,-24.6771 28.0313,-24.0313 L28.0313,24.0313 C28.0313,24.6771 27.6719,25 26.9531,25"/>
<path class="Clef" transform="matrix(0.992126,0,0,0.992126,161.575,1084.25)" d="M49.0313,25 L39.8438,25 C39.125,25 38.7656,24.6771 38.7656,24.0313 L38.7656,-24.0313 C38.7656,-24.6771 39.125,-25 39.8438,-25 L49.0313,-25 C49.6771,-25 50,-24.6771 50,-24.0313 L50,24.0313 C50,24.6771 49.6771,25 49.0313,25 M26.9531,25 L17.6719,25 C17.026,25 16.7031,24.6771 16.7031,24.0313 L16.7031,-24.0313 C16.7031,-24.6771 17.026,-25 17.6719,-25 L26.9531,-25 C27.6719,-25 28.0313,-24.6771 28.0313,-24.0313 L28.0313,24.0313 C28.0313,24.6771 27.6719,25 26.9531,25"/>
<path class="TimeSig" transform="matrix(0.992126,0,0,0.992126,237.643,588.189)" d="M22.0781,2.34375 C21.2969,0.385417 19.6354,-0.59375 17.0938,-0.59375 C14.5521,-0.59375 12.9896,0.385417 12.4063,2.34375 C11.9479,3.78125 11.7188,6.19271 11.7188,9.57813 L11.7188,12.5 C11.7188,15.8854 11.9479,18.2969 12.4063,19.7344 C12.9896,21.6823 14.5833,22.6563 17.1875,22.6563 C19.7917,22.6563 21.4349,21.5495 22.1172,19.3359 C22.7995,17.1224 23.1406,14.2266 23.1406,10.6484 C23.1406,7.07031 22.7865,4.30208 22.0781,2.34375 M11.7188,-1.5625 C13.6771,-2.34375 15.4375,-2.80208 17,-2.9375 C22.2083,-2.9375 26.375,-1.76042 29.5,0.59375 C32.4896,3 33.9844,6.46615 33.9844,10.9922 C33.9844,15.5182 32.4557,18.9844 29.3984,21.3906 C26.3411,23.7969 22.1745,25 16.8984,25 C11.6224,25 7.48698,22.526 4.49219,17.5781 C1.4974,12.6302 0,6.80208 0,0.09375 C0,-6.61458 1.76042,-12.5052 5.28125,-17.5781 C8.85417,-22.526 13.4427,-25 19.0469,-25 C22.6927,-25 25.8984,-24.0573 28.6641,-22.1719 C31.4297,-20.2865 32.8125,-17.8125 32.8125,-14.75 C32.8125,-12.8646 32.1615,-11.3021 30.8594,-10.0625 C29.6927,-8.76042 28.1979,-8.10938 26.375,-8.10938 C24.5521,-8.10938 22.9896,-8.76042 21.6875,-10.0625 C20.3854,-11.3646 19.7344,-12.9271 19.7344,-14.75 C19.7344,-15.4688 20.3854,-16.2813 21.6875,-17.1875 C22.9896,-17.9688 23.6406,-18.7995 23.6406,-19.6797 C23.6406,-20.5599 23.1823,-21.2917 22.2656,-21.875 C21.224,-22.3958 20.151,-22.6563 19.0469,-22.6563 C16.0469,-22.6563 14.0625,-21.4531 13.0938,-19.0469 C12.0521,-16.7031 11.5313,-13.2865 11.5313,-8.79688 C11.5313,-7.49479 11.5625,-6.28906 11.625,-5.17969 C11.6875,-4.07031 11.7188,-2.86458 11.7188,-1.5625"/>
<path class="TimeSig" transform="matrix(0.992126,0,0,0.992126,235.984,637.795)" d="M25.875,-3.8125 C29.1354,-7.39583 30.7656,-10.651 30.7656,-13.5781 C30.7656,-16.5052 29.6432,-18.75 27.3984,-20.3125 C25.1536,-21.875 22.6458,-22.6563 19.875,-22.6563 C17.1042,-22.6563 15.0365,-21.9401 13.6719,-20.5078 C12.3073,-19.0755 11.625,-17.3333 11.625,-15.2813 C11.625,-13.2292 12.6354,-11.5885 14.6563,-10.3594 L25.875,-3.8125 M1.46875,-11.1406 C1.46875,-15.0469 3.0625,-18.3333 6.25,-21 C9.4375,-23.6667 13.4401,-25 18.2578,-25 C23.0755,-25 27.0807,-24.0391 30.2734,-22.1172 C33.4661,-20.1953 35.0625,-17.4948 35.0625,-14.0156 C35.0625,-10.5365 33.0104,-6.58333 28.9063,-2.15625 C34.4375,1.04167 37.2031,5.30729 37.2031,10.6406 C37.2031,14.6198 35.5443,18.0078 32.2266,20.8047 C28.9089,23.6016 24.4818,25 18.9453,25 C13.4089,25 8.91667,23.6979 5.46875,21.0938 C1.82292,18.4896 0,15.1354 0,11.0313 C0,9.54167 0.458333,8.01563 1.375,6.45313 C2.15625,4.69271 4.23958,2.21354 7.625,-0.984375 C3.52083,-3.84896 1.46875,-7.23438 1.46875,-11.1406 M10.6406,0.78125 C6.54688,4.42708 4.5,7.89323 4.5,11.1797 C4.5,14.4661 5.84896,17.2005 8.54688,19.3828 C11.2448,21.5651 14.2057,22.6563 17.4297,22.6563 C20.6536,22.6563 23.0156,21.8125 24.5156,20.125 C26.0781,18.5625 26.8594,16.5104 26.8594,13.9688 C26.8594,11.4271 25.7188,9.50521 23.4375,8.20313 L10.6406,0.78125 "/>
<path class="Rest" transform="matrix(0.992126,0,0,0.992126,1616.6,612.992)" d="M0.390625,-5.28125 C-0.265625,-6.125 -0.59375,-7.03646 -0.59375,-8.01563 C-0.59375,-9.76563 1.49479,-12.2031 5.67188,-15.3281 C9.76563,-18.526 11.8125,-22.1719 11.8125,-26.2656 C11.8125,-28.6823 10.9688,-30.8958 9.28125,-32.9063 L5.76563,-37.1094 C5.50521,-37.3698 5.375,-37.6953 5.375,-38.0859 C5.375,-38.4766 5.56771,-38.8333 5.95313,-39.1563 C6.41146,-39.4896 6.83594,-39.6563 7.22656,-39.6563 C7.61719,-39.6563 7.94271,-39.4583 8.20313,-39.0625 L23.3438,-21.0938 C23.9896,-20.25 24.3125,-19.3229 24.3125,-18.3125 C24.3125,-17.3021 23.776,-16.2109 22.7031,-15.0391 C21.6302,-13.8672 20.1198,-12.5 18.1719,-10.9375 C16.6719,-10.0313 15.2552,-8.60156 13.9219,-6.64844 C12.5885,-4.69531 11.9219,-2.47917 11.9219,0 C11.9219,2.47917 12.7031,4.66146 14.2656,6.54688 L22.6563,16.4063 C22.8542,16.6042 22.9844,16.9297 23.0469,17.3828 C23.1094,17.8359 22.9453,18.2266 22.5547,18.5547 C22.1641,18.8828 21.8568,19.0469 21.6328,19.0469 C21.4089,19.0469 20.8229,18.6719 19.875,17.9219 C18.9271,17.1719 17.5911,16.4401 15.8672,15.7266 C14.1432,15.013 12.4349,14.6563 10.7422,14.6563 C9.04948,14.6563 7.71615,15.112 6.74219,16.0234 C5.76823,16.9349 5.28125,19.0339 5.28125,22.3203 C5.28125,25.6068 6.22396,28.3906 8.10938,30.6719 C8.30729,30.9323 8.34115,31.224 8.21094,31.5469 C8.08073,31.8698 7.82031,32.0313 7.42969,32.0313 C7.03906,32.0313 6.04427,30.8281 4.44531,28.4219 C2.84635,26.0156 1.3151,23.1667 -0.148438,19.875 C-1.61198,16.5833 -2.34375,13.8333 -2.34375,11.625 C-2.34375,8.82292 -0.911458,7.42188 1.95313,7.42188 C4.81771,7.42188 8.69271,8.46354 13.5781,10.5469 L0.390625,-5.28125 "/>
<path class="Rest" transform="matrix(0.992126,0,0,0.992126,1277.87,1084.25)" d="M0.390625,-5.28125 C-0.265625,-6.125 -0.59375,-7.03646 -0.59375,-8.01563 C-0.59375,-9.76563 1.49479,-12.2031 5.67188,-15.3281 C9.76563,-18.526 11.8125,-22.1719 11.8125,-26.2656 C11.8125,-28.6823 10.9688,-30.8958 9.28125,-32.9063 L5.76563,-37.1094 C5.50521,-37.3698 5.375,-37.6953 5.375,-38.0859 C5.375,-38.4766 5.56771,-38.8333 5.95313,-39.1563 C6.41146,-39.4896 6.83594,-39.6563 7.22656,-39.6563 C7.61719,-39.6563 7.94271,-39.4583 8.20313,-39.0625 L23.3438,-21.0938 C23.9896,-20.25 24.3125,-19.3229 24.3125,-18.3125 C24.3125,-17.3021 23.776,-16.2109 22.7031,-15.0391 C21.6302,-13.8672 20.1198,-12.5 18.1719,-10.9375 C16.6719,-10.0313 15.2552,-8.60156 13.9219,-6.64844 C12.5885,-4.69531 11.9219,-2.47917 11.9219,0 C11.9219,2.47917 12.7031,4.66146 14.2656,6.54688 L22.6563,16.4063 C22.8542,16.6042 22.9844,16.9297 23.0469,17.3828 C23.1094,17.8359 22.9453,18.2266 22.5547,18.5547 C22.1641,18.8828 21.8568,19.0469 21.6328,19.0469 C21.4089,19.0469 20.8229,18.6719 19.875,17.9219 C18.9271,17.1719 17.5911,16.4401 15.8672,15.7266 C14.1432,15.013 12.4349,14.6563 10.7422,14.6563 C9.04948,14.6563 7.71615,15.112 6.74219,16.0234 C5.76823,16.9349 5.28125,19.0339 5.28125,22.3203 C5.28125,25.6068 6.22396,28.3906 8.10938,30.6719 C8.30729,30.9323 8.34115,31.224 8.21094,31.5469 C8.08073,31.8698 7.82031,32.0313 7.42969,32.0313 C7.03906,32.0313 6.04427,30.8281 4.44531,28.4219 C2.84635,26.0156 1.3151,23.1667 -0.148438,19.875 C-1.61198,16.5833 -2.34375,13.8333 -2.34375,11.625 C-2.34375,8.82292 -0.911458,7.42188 1.95313,7.42188 C4.81771,7.42188 8.69271,8.46354 13.5781,10.5469 L0.390625,-5.28125 "/>
<path class="Beam" fill-rule="evenodd" d="M545.884,681.201 L803.379,681.201 L803.379,693.602 L545.884,693.602 L545.884,681.201 "/>
<path class="Beam" fill-rule="evenodd" d="M956.062,681.201 L1213.56,681.201 L1213.56,693.602 L956.062,693.602 L956.062,681.201 "/>
<path class="Beam" fill-rule="evenodd" d="M1861.83,681.201 L2116.45,681.201 L2116.45,693.602 L1861.83,693.602 L1861.83,681.201 "/>
<path class="Beam" fill-rule="evenodd" d="M273.189,1152.46 L508.547,1152.46 L508.547,1164.86 L273.189,1164.86 L273.189,1152.46 "/>
<path class="Beam" fill-rule="evenodd" d="M621.39,1152.46 L856.748,1152.46 L856.748,1164.86 L621.39,1164.86 L621.39,1152.46 "/>
<path class="Beam" fill-rule="evenodd" d="M1586.16,1152.46 L1843.86,1152.46 L1843.86,1164.86 L1586.16,1164.86 L1586.16,1152.46 "/>
<path class="NoteDot" transform="matrix(0.992126,0,0,0.992126,339.181,600.591)" d="M1.66406,4.00781 C0.554688,2.89844 0,1.5625 0,0 C0,-1.5625 0.554688,-2.89844 1.66406,-4.00781 C2.77344,-5.11719 4.10938,-5.67188 5.67188,-5.67188 C7.23438,-5.67188 8.56771,-5.11719 9.67188,-4.00781 C10.776,-2.89844 11.3281,-1.5625 11.3281,0 C11.3281,1.5625 10.776,2.89844 9.67188,4.00781 C8.56771,5.11719 7.23438,5.67188 5.67188,5.67188 C4.10938,5.67188 2.77344,5.11719 1.66406,4.00781"/>
<path class="NoteDot" transform="matrix(0.992126,0,0,0.992126,1378.81,600.591)" d="M1.66406,4.00781 C0.554688,2.89844 0,1.5625 0,0 C0,-1.5625 0.554688,-2.89844 1.66406,-4.00781 C2.77344,-5.11719 4.10938,-5.67188 5.67188,-5.67188 C7.23438,-5.67188 8.56771,-5.11719 9.67188,-4.00781 C10.776,-2.89844 11.3281,-1.5625 11.3281,0 C11.3281,1.5625 10.776,2.89844 9.67188,4.00781 C8.56771,5.11719 7.23438,5.67188 5.67188,5.67188 C4.10938,5.67188 2.77344,5.11719 1.66406,4.00781"/>
<path class="NoteDot" transform="matrix(0.992126,0,0,0.992126,1651.74,600.591)" d="M1.66406,4.00781 C0.554688,2.89844 0,1.5625 0,0 C0,-1.5625 0.554688,-2.89844 1.66406,-4.00781 C2.77344,-5.11719 4.10938,-5.67188 5.67188,-5.67188 C7.23438,-5.67188 8.56771,-5.11719 9.67188,-4.00781 C10.776,-2.89844 11.3281,-1.5625 11.3281,0 C11.3281,1.5625 10.776,2.89844 9.67188,4.00781 C8.56771,5.11719 7.23438,5.67188 5.67188,5.67188 C4.10938,5.67188 2.77344,5.11719 1.66406,4.00781"/>
<path class="NoteDot" transform="matrix(0.992126,0,0,0.992126,2309.03,600.591)" d="M1.66406,4.00781 C0.554688,2.89844 0,1.5625 0,0 C0,-1.5625 0.554688,-2.89844 1.66406,-4.00781 C2.77344,-5.11719 4.10938,-5.67188 5.67188,-5.67188 C7.23438,-5.67188 8.56771,-5.11719 9.67188,-4.00781 C10.776,-2.89844 11.3281,-1.5625 11.3281,0 C11.3281,1.5625 10.776,2.89844 9.67188,4.00781 C8.56771,5.11719 7.23438,5.67188 5.67188,5.67188 C4.10938,5.67188 2.77344,5.11719 1.66406,4.00781"/>
<path class="NoteDot" transform="matrix(0.992126,0,0,0.992126,2590.52,600.591)" d="M1.66406,4.00781 C0.554688,2.89844 0,1.5625 0,0 C0,-1.5625 0.554688,-2.89844 1.66406,-4.00781 C2.77344,-5.11719 4.10938,-5.67188 5.67188,-5.67188 C7.23438,-5.67188 8.56771,-5.11719 9.67188,-4.00781 C10.776,-2.89844 11.3281,-1.5625 11.3281,0 C11.3281,1.5625 10.776,2.89844 9.67188,4.00781 C8.56771,5.11719 7.23438,5.67188 5.67188,5.67188 C4.10938,5.67188 2.77344,5.11719 1.66406,4.00781"/>
<path class="NoteDot" transform="matrix(0.992126,0,0,0.992126,1039.7,1071.85)" d="M1.66406,4.00781 C0.554688,2.89844 0,1.5625 0,0 C0,-1.5625 0.554688,-2.89844 1.66406,-4.00781 C2.77344,-5.11719 4.10938,-5.67188 5.67188,-5.67188 C7.23438,-5.67188 8.56771,-5.11719 9.67188,-4.00781 C10.776,-2.89844 11.3281,-1.5625 11.3281,0 C11.3281,1.5625 10.776,2.89844 9.67188,4.00781 C8.56771,5.11719 7.23438,5.67188 5.67188,5.67188 C4.10938,5.67188 2.77344,5.11719 1.66406,4.00781"/>
<path class="NoteDot" transform="matrix(0.992126,0,0,0.992126,1313.01,1071.85)" d="M1.66406,4.00781 C0.554688,2.89844 0,1.5625 0,0 C0,-1.5625 0.554688,-2.89844 1.66406,-4.00781 C2.77344,-5.11719 4.10938,-5.67188 5.67188,-5.67188 C7.23438,-5.67188 8.56771,-5.11719 9.67188,-4.00781 C10.776,-2.89844 11.3281,-1.5625 11.3281,0 C11.3281,1.5625 10.776,2.89844 9.67188,4.00781 C8.56771,5.11719 7.23438,5.67188 5.67188,5.67188 C4.10938,5.67188 2.77344,5.11719 1.66406,4.00781"/>
<path class="NoteDot" transform="matrix(0.992126,0,0,0.992126,2009.2,1071.85)" d="M1.66406,4.00781 C0.554688,2.89844 0,1.5625 0,0 C0,-1.5625 0.554688,-2.89844 1.66406,-4.00781 C2.77344,-5.11719 4.10938,-5.67188 5.67188,-5.67188 C7.23438,-5.67188 8.56771,-5.11719 9.67188,-4.00781 C10.776,-2.89844 11.3281,-1.5625 11.3281,0 C11.3281,1.5625 10.776,2.89844 9.67188,4.00781 C8.56771,5.11719 7.23438,5.67188 5.67188,5.67188 C4.10938,5.67188 2.77344,5.11719 1.66406,4.00781"/>
<path class="NoteDot" transform="matrix(0.992126,0,0,0.992126,2286.21,1071.85)" d="M1.66406,4.00781 C0.554688,2.89844 0,1.5625 0,0 C0,-1.5625 0.554688,-2.89844 1.66406,-4.00781 C2.77344,-5.11719 4.10938,-5.67188 5.67188,-5.67188 C7.23438,-5.67188 8.56771,-5.11719 9.67188,-4.00781 C10.776,-2.89844 11.3281,-1.5625 11.3281,0 C11.3281,1.5625 10.776,2.89844 9.67188,4.00781 C8.56771,5.11719 7.23438,5.67188 5.67188,5.67188 C4.10938,5.67188 2.77344,5.11719 1.66406,4.00781"/>
<path class="NoteDot" transform="matrix(0.992126,0,0,0.992126,2567.95,1071.85)" d="M1.66406,4.00781 C0.554688,2.89844 0,1.5625 0,0 C0,-1.5625 0.554688,-2.89844 1.66406,-4.00781 C2.77344,-5.11719 4.10938,-5.67188 5.67188,-5.67188 C7.23438,-5.67188 8.56771,-5.11719 9.67188,-4.00781 C10.776,-2.89844 11.3281,-1.5625 11.3281,0 C11.3281,1.5625 10.776,2.89844 9.67188,4.00781 C8.56771,5.11719 7.23438,5.67188 5.67188,5.67188 C4.10938,5.67188 2.77344,5.11719 1.66406,4.00781"/>
</svg>
