<?xml version="1.0" encoding="UTF-8" standalone="no"?>
<svg width="155.41mm" height="39.24mm" viewBox="127.73 485.76 2720.92 686.98"
 xmlns="http://www.w3.org/2000/svg" xmlns:xlink="http://www.w3.org/1999/xlink" version="1.2" baseProfile="tiny">
<title>ee1e55683b77</title>
<desc>Generated by MuseScore 3.2.3</desc>
<polyline class="StaffLines" fill="none" stroke="#000000" stroke-width="1.98" stroke-linejoin="bevel" points="141.732,563.386 2834.65,563.386"/>
<polyline class="StaffLines" fill="none" stroke="#000000" stroke-width="1.98" stroke-linejoin="bevel" points="141.732,588.189 2834.65,588.189"/>
<polyline class="StaffLines" fill="none" stroke="#000000" stroke-width="1.98" stroke-linejoin="bevel" points="141.732,612.992 2834.65,612.992"/>
<polyline class="StaffLines" fill="none" stroke="#000000" stroke-width="1.98" stroke-linejoin="bevel" points="141.732,637.795 2834.65,637.795"/>
<polyline class="StaffLines" fill="none" stroke="#000000" stroke-width="1.98" stroke-linejoin="bevel" points="141.732,662.598 2834.65,662.598"/>
<polyline class="StaffLines" fill="none" stroke="#000000" stroke-width="1.98" stroke-linejoin="bevel" points="141.732,1034.65 2834.65,1034.65"/>
<polyline class="StaffLines" fill="none" stroke="#000000" stroke-width="1.98" stroke-linejoin="bevel" points="141.732,1059.45 2834.65,1059.45"/>
<polyline class="StaffLines" fill="none" stroke="#000000" stroke-width="1.98" stroke-linejoin="bevel" points="141.732,1084.25 2834.65,1084.25"/>
<polyline class="StaffLines" fill="none" stroke="#000000" stroke-width="1.98" stroke-linejoin="bevel" points="141.732,1109.06 2834.65,1109.06"/>
<polyline class="StaffLines" fill="none" stroke="#000000" stroke-width="1.98" stroke-linejoin="bevel" points="141.732,1133.86 2834.65,1133.86"/>
<polyline class="BarLine" fill="none" stroke="#000000" stroke-width="3.97" stroke-linejoin="bevel" points="656.569,562.394 656.569,663.591"/>
<polyline class="BarLine" fill="none" stroke="#000000" stroke-width="3.97" stroke-linejoin="bevel" points="941.639,562.394 941.639,663.591"/>
<polyline class="BarLine" fill="none" stroke="#000000" stroke-width="3.97" stroke-linejoin="bevel" points="1119.31,562.394 1119.31,663.591"/>
<polyline class="BarLine" fill="none" stroke="#000000" stroke-width="3.97" stroke-linejoin="bevel" points="1447.12,562.394 1447.12,663.591"/>
<polyline class="BarLine" fill="none" stroke="#000000" stroke-width="3.97" stroke-linejoin="bevel" points="1670.1,562.394 1670.1,663.591"/>
<polyline class="BarLine" fill="none" stroke="#000000" stroke-width="3.97" stroke-linejoin="bevel" points="2106.76,562.394 2106.76,663.591"/>
<polyline class="BarLine" fill="none" stroke="#000000" stroke-width="3.97" stroke-linejoin="bevel" points="2369.92,562.394 2369.92,663.591"/>
<polyline class="BarLine" fill="none" stroke="#000000" stroke-width="3.97" stroke-linejoin="bevel" points="2526.76,562.394 2526.76,663.591"/>
<polyline class="BarLine" fill="none" stroke="#000000" stroke-width="3.97" stroke-linejoin="bevel" points="2832.66,562.394 2832.66,663.591"/>
<polyline class="BarLine" fill="none" stroke="#000000" stroke-width="3.97" stroke-linejoin="bevel" points="663.735,1033.65 663.735,1134.85"/>
<polyline class="BarLine" fill="none" stroke="#000000" stroke-width="3.97" stroke-linejoin="bevel" points="1048.05,1033.65 1048.05,1134.85"/>
<polyline class="BarLine" fill="none" stroke="#000000" stroke-width="3.97" stroke-linejoin="bevel" points="1388.53,1033.65 1388.53,1134.85"/>
<polyline class="BarLine" fill="none" stroke="#000000" stroke-width="3.97" stroke-linejoin="bevel" points="1730.49,1033.65 1730.49,1134.85"/>
<polyline class="BarLine" fill="none" stroke="#000000" stroke-width="3.97" stroke-linejoin="bevel" points="2070.98,1033.65 2070.98,1134.85"/>
<polyline class="BarLine" fill="none" stroke="#000000" stroke-width="3.97" stroke-linejoin="bevel" points="2582.43,1033.65 2582.43,1134.85"/>
<polyline class="BarLine" fill="none" stroke="#000000" stroke-width="3.97" stroke-linejoin="bevel" points="2810.34,1033.65 2810.34,1134.85"/>
<polyline class="BarLine" fill="none" stroke="#000000" stroke-width="12.40" stroke-linejoin="bevel" points="2828.44,1033.65 2828.44,1134.85"/>
<path class="Accidental" transform="matrix(0.992126,0,0,0.992126,1788.41,637.795)" d="M22.6563,-21.9688 C24.0938,-22.3646 24.8125,-22.0104 24.8125,-20.9063 L24.8125,-13.0938 C24.8125,-12.3125 24.1927,-11.6927 22.9531,-11.2344 L19.7344,-9.96875 L19.7344,4.20313 L22.6563,3.03125 C24.0938,2.63542 24.8125,2.99479 24.8125,4.10938 L24.8125,11.9219 C24.8125,12.7031 24.1927,13.3177 22.9531,13.7656 L19.7344,15.0469 L19.7344,31.25 C19.7344,32.4896 19.2448,33.1094 18.2656,33.1094 C17.2865,33.1094 16.7969,32.4896 16.7969,31.25 L16.7969,16.2188 L7.51563,19.9219 L7.51563,36.0313 C7.51563,37.2708 7.02865,37.8906 6.05469,37.8906 C5.08073,37.8906 4.59375,37.2708 4.59375,36.0313 L4.59375,21.0938 L2.04688,22.1719 C0.682292,22.7552 0,22.3646 0,21 L0,13.2813 C0,12.6354 0.588542,12.0521 1.76563,11.5313 L4.59375,10.3594 L4.59375,-3.90625 L2.04688,-2.82813 C0.682292,-2.24479 0,-2.63542 0,-4 L0,-11.7188 C0,-12.375 0.588542,-12.9635 1.76563,-13.4844 L4.59375,-14.6563 L4.59375,-30.7656 C4.59375,-32.0052 5.08073,-32.625 6.05469,-32.625 C7.02865,-32.625 7.51563,-32.0052 7.51563,-30.7656 L7.51563,-15.8281 L16.7969,-19.625 L16.7969,-35.5469 C16.7969,-36.7865 17.2865,-37.4063 18.2656,-37.4063 C19.2448,-37.4063 19.7344,-36.7865 19.7344,-35.5469 L19.7344,-20.7969 L22.6563,-21.9688 M7.51563,-5.07813 L7.51563,9.1875 L16.7969,5.375 L16.7969,-8.79688 L7.51563,-5.07813 "/>
<path class="Accidental" transform="matrix(0.992126,0,0,0.992126,1956.99,550.984)" d="M22.6563,-21.9688 C24.0938,-22.3646 24.8125,-22.0104 24.8125,-20.9063 L24.8125,-13.0938 C24.8125,-12.3125 24.1927,-11.6927 22.9531,-11.2344 L19.7344,-9.96875 L19.7344,4.20313 L22.6563,3.03125 C24.0938,2.63542 24.8125,2.99479 24.8125,4.10938 L24.8125,11.9219 C24.8125,12.7031 24.1927,13.3177 22.9531,13.7656 L19.7344,15.0469 L19.7344,31.25 C19.7344,32.4896 19.2448,33.1094 18.2656,33.1094 C17.2865,33.1094 16.7969,32.4896 16.7969,31.25 L16.7969,16.2188 L7.51563,19.9219 L7.51563,36.0313 C7.51563,37.2708 7.02865,37.8906 6.05469,37.8906 C5.08073,37.8906 4.59375,37.2708 4.59375,36.0313 L4.59375,21.0938 L2.04688,22.1719 C0.682292,22.7552 0,22.3646 0,21 L0,13.2813 C0,12.6354 0.588542,12.0521 1.76563,11.5313 L4.59375,10.3594 L4.59375,-3.90625 L2.04688,-2.82813 C0.682292,-2.24479 0,-2.63542 0,-4 L0,-11.7188 C0,-12.375 0.588542,-12.9635 1.76563,-13.4844 L4.59375,-14.6563 L4.59375,-30.7656 C4.59375,-32.0052 5.08073,-32.625 6.05469,-32.625 C7.02865,-32.625 7.51563,-32.0052 7.51563,-30.7656 L7.51563,-15.8281 L16.7969,-19.625 L16.7969,-35.5469 C16.7969,-36.7865 17.2865,-37.4063 18.2656,-37.4063 C19.2448,-37.4063 19.7344,-36.7865 19.7344,-35.5469 L19.7344,-20.7969 L22.6563,-21.9688 M7.51563,-5.07813 L7.51563,9.1875 L16.7969,5.375 L16.7969,-8.79688 L7.51563,-5.07813 "/>
<path class="Accidental" transform="matrix(0.992126,0,0,0.992126,1592.54,1109.06)" d="M22.6563,-21.9688 C24.0938,-22.3646 24.8125,-22.0104 24.8125,-20.9063 L24.8125,-13.0938 C24.8125,-12.3125 24.1927,-11.6927 22.9531,-11.2344 L19.7344,-9.96875 L19.7344,4.20313 L22.6563,3.03125 C24.0938,2.63542 24.8125,2.99479 24.8125,4.10938 L24.8125,11.9219 C24.8125,12.7031 24.1927,13.3177 22.9531,13.7656 L19.7344,15.0469 L19.7344,31.25 C19.7344,32.4896 19.2448,33.1094 18.2656,33.1094 C17.2865,33.1094 16.7969,32.4896 16.7969,31.25 L16.7969,16.2188 L7.51563,19.9219 L7.51563,36.0313 C7.51563,37.2708 7.02865,37.8906 6.05469,37.8906 C5.08073,37.8906 4.59375,37.2708 4.59375,36.0313 L4.59375,21.0938 L2.04688,22.1719 C0.682292,22.7552 0,22.3646 0,21 L0,13.2813 C0,12.6354 0.588542,12.0521 1.76563,11.5313 L4.59375,10.3594 L4.59375,-3.90625 L2.04688,-2.82813 C0.682292,-2.24479 0,-2.63542 0,-4 L0,-11.7188 C0,-12.375 0.588542,-12.9635 1.76563,-13.4844 L4.59375,-14.6563 L4.59375,-30.7656 C4.59375,-32.0052 5.08073,-32.625 6.05469,-32.625 C7.02865,-32.625 7.51563,-32.0052 7.51563,-30.7656 L7.51563,-15.8281 L16.7969,-19.625 L16.7969,-35.5469 C16.7969,-36.7865 17.2865,-37.4063 18.2656,-37.4063 C19.2448,-37.4063 19.7344,-36.7865 19.7344,-35.5469 L19.7344,-20.7969 L22.6563,-21.9688 M7.51563,-5.07813 L7.51563,9.1875 L16.7969,5.375 L16.7969,-8.79688 L7.51563,-5.07813 "/>
<polyline class="LedgerLine" fill="none" stroke="#000000" stroke-width="3.97" stroke-linecap="square" stroke-linejoin="bevel" points="2038.36,538.583 2085.9,538.583"/>
<polyline class="Stem" fill="none" stroke="#000000" stroke-width="3.22" stroke-linecap="round" stroke-linejoin="bevel" points="472.071,620.735 472.071,544.783"/>
<polyline class="Stem" fill="none" stroke="#000000" stroke-width="3.22" stroke-linecap="round" stroke-linejoin="bevel" points="536.487,608.334 536.487,538.583"/>
<polyline class="Stem" fill="none" stroke="#000000" stroke-width="3.22" stroke-linecap="round" stroke-linejoin="bevel" points="545.912,592.847 545.912,662.598"/>
<polyline class="Stem" fill="none" stroke="#000000" stroke-width="3.22" stroke-linecap="round" stroke-linejoin="bevel" points="598.739,605.249 598.739,668.799"/>
<polyline class="Stem" fill="none" stroke="#000000" stroke-width="3.22" stroke-linecap="round" stroke-linejoin="bevel" points="714.399,645.538 714.399,569.587"/>
<polyline class="Stem" fill="none" stroke="#000000" stroke-width="3.22" stroke-linecap="round" stroke-linejoin="bevel" points="757.985,657.94 757.985,566.486"/>
<polyline class="Stem" fill="none" stroke="#000000" stroke-width="3.22" stroke-linecap="round" stroke-linejoin="bevel" points="801.571,633.137 801.571,563.386"/>
<polyline class="Stem" fill="none" stroke="#000000" stroke-width="3.22" stroke-linecap="round" stroke-linejoin="bevel" points="845.157,645.538 845.157,563.386"/>
<polyline class="Stem" fill="none" stroke="#000000" stroke-width="3.22" stroke-linecap="round" stroke-linejoin="bevel" points="913.239,620.735 913.239,544.783"/>
<polyline class="Stem" fill="none" stroke="#000000" stroke-width="3.22" stroke-linecap="round" stroke-linejoin="bevel" points="970.038,580.446 970.038,643.996"/>
<polyline class="Stem" fill="none" stroke="#000000" stroke-width="3.22" stroke-linecap="round" stroke-linejoin="bevel" points="1011.4,568.044 1011.4,637.795"/>
<polyline class="Stem" fill="none" stroke="#000000" stroke-width="3.22" stroke-linecap="round" stroke-linejoin="bevel" points="1052.76,555.643 1052.76,637.795"/>
<polyline class="Stem" fill="none" stroke="#000000" stroke-width="3.22" stroke-linecap="round" stroke-linejoin="bevel" points="1147.71,568.044 1147.71,681.201"/>
<polyline class="Stem" fill="none" stroke="#000000" stroke-width="3.22" stroke-linecap="round" stroke-linejoin="bevel" points="1188.31,605.249 1188.31,697.736"/>
<polyline class="Stem" fill="none" stroke="#000000" stroke-width="3.22" stroke-linecap="round" stroke-linejoin="bevel" points="1228.9,642.454 1228.9,714.272"/>
<polyline class="Stem" fill="none" stroke="#000000" stroke-width="3.22" stroke-linecap="round" stroke-linejoin="bevel" points="1269.5,654.855 1269.5,730.807"/>
<polyline class="Stem" fill="none" stroke="#000000" stroke-width="3.22" stroke-linecap="round" stroke-linejoin="bevel" points="1339.52,620.735 1339.52,544.783"/>
<polyline class="Stem" fill="none" stroke="#000000" stroke-width="3.22" stroke-linecap="round" stroke-linejoin="bevel" points="1418.72,620.735 1418.72,544.783"/>
<polyline class="Stem" fill="none" stroke="#000000" stroke-width="3.22" stroke-linecap="round" stroke-linejoin="bevel" points="1504.95,620.735 1504.95,557.185"/>
<polyline class="Stem" fill="none" stroke="#000000" stroke-width="3.22" stroke-linecap="round" stroke-linejoin="bevel" points="1543.81,645.538 1543.81,557.185"/>
<polyline class="Stem" fill="none" stroke="#000000" stroke-width="3.22" stroke-linecap="round" stroke-linejoin="bevel" points="1582.67,620.735 1582.67,557.185"/>
<polyline class="Stem" fill="none" stroke="#000000" stroke-width="3.22" stroke-linecap="round" stroke-linejoin="bevel" points="1727.93,595.932 1727.93,519.98"/>
<polyline class="Stem" fill="none" stroke="#000000" stroke-width="3.22" stroke-linecap="round" stroke-linejoin="bevel" points="1775.14,620.735 1775.14,525.19"/>
<polyline class="Stem" fill="none" stroke="#000000" stroke-width="3.22" stroke-linecap="round" stroke-linejoin="bevel" points="1849.3,633.137 1849.3,533.373"/>
<polyline class="Stem" fill="none" stroke="#000000" stroke-width="3.22" stroke-linecap="round" stroke-linejoin="bevel" points="1896.51,620.735 1896.51,538.583"/>
<polyline class="Stem" fill="none" stroke="#000000" stroke-width="3.22" stroke-linecap="round" stroke-linejoin="bevel" points="1914.29,580.446 1914.29,643.996"/>
<polyline class="Stem" fill="none" stroke="#000000" stroke-width="3.22" stroke-linecap="round" stroke-linejoin="bevel" points="1988.45,555.643 1988.45,626.726"/>
<polyline class="Stem" fill="none" stroke="#000000" stroke-width="3.22" stroke-linecap="round" stroke-linejoin="bevel" points="2047.42,543.241 2047.42,612.992"/>
<polyline class="Stem" fill="none" stroke="#000000" stroke-width="3.22" stroke-linecap="round" stroke-linejoin="bevel" points="2135.16,555.643 2135.16,631.594"/>
<polyline class="Stem" fill="none" stroke="#000000" stroke-width="3.22" stroke-linecap="round" stroke-linejoin="bevel" points="2184.77,580.446 2184.77,643.996"/>
<polyline class="Stem" fill="none" stroke="#000000" stroke-width="3.22" stroke-linecap="round" stroke-linejoin="bevel" points="2234.38,605.249 2234.38,687.402"/>
<polyline class="Stem" fill="none" stroke="#000000" stroke-width="3.22" stroke-linecap="round" stroke-linejoin="bevel" points="2273.23,580.446 2273.23,684.301"/>
<polyline class="Stem" fill="none" stroke="#000000" stroke-width="3.22" stroke-linecap="round" stroke-linejoin="bevel" points="2312.09,592.847 2312.09,681.201"/>
<polyline class="Stem" fill="none" stroke="#000000" stroke-width="3.22" stroke-linecap="round" stroke-linejoin="bevel" points="2427.75,620.735 2427.75,544.783"/>
<polyline class="Stem" fill="none" stroke="#000000" stroke-width="3.22" stroke-linecap="round" stroke-linejoin="bevel" points="2468.93,592.847 2468.93,675"/>
<polyline class="Stem" fill="none" stroke="#000000" stroke-width="3.22" stroke-linecap="round" stroke-linejoin="bevel" points="2555.16,555.643 2555.16,656.398"/>
<polyline class="Stem" fill="none" stroke="#000000" stroke-width="3.22" stroke-linecap="round" stroke-linejoin="bevel" points="2601.74,592.847 2601.74,656.398"/>
<polyline class="Stem" fill="none" stroke="#000000" stroke-width="3.22" stroke-linecap="round" stroke-linejoin="bevel" points="2648.33,568.044 2648.33,656.398"/>
<polyline class="Stem" fill="none" stroke="#000000" stroke-width="3.22" stroke-linecap="round" stroke-linejoin="bevel" points="2694.91,580.446 2694.91,662.598"/>
<polyline class="Stem" fill="none" stroke="#000000" stroke-width="3.22" stroke-linecap="round" stroke-linejoin="bevel" points="2733.76,568.044 2733.76,671.9"/>
<polyline class="Stem" fill="none" stroke="#000000" stroke-width="3.22" stroke-linecap="round" stroke-linejoin="bevel" points="2772.62,605.249 2772.62,681.201"/>
<polyline class="Stem" fill="none" stroke="#000000" stroke-width="3.22" stroke-linecap="round" stroke-linejoin="bevel" points="444.648,1116.8 444.648,1034.65"/>
<polyline class="Stem" fill="none" stroke="#000000" stroke-width="3.22" stroke-linecap="round" stroke-linejoin="bevel" points="579.274,1039.3 579.274,1121.46"/>
<polyline class="Stem" fill="none" stroke="#000000" stroke-width="3.22" stroke-linecap="round" stroke-linejoin="bevel" points="692.134,1026.9 692.134,1109.06"/>
<polyline class="Stem" fill="none" stroke="#000000" stroke-width="3.22" stroke-linecap="round" stroke-linejoin="bevel" points="809.663,1051.71 809.663,1127.66"/>
<polyline class="Stem" fill="none" stroke="#000000" stroke-width="3.22" stroke-linecap="round" stroke-linejoin="bevel" points="869.904,1076.51 869.904,1152.46"/>
<polyline class="Stem" fill="none" stroke="#000000" stroke-width="3.22" stroke-linecap="round" stroke-linejoin="bevel" points="987.433,1039.3 987.433,1133.86"/>
<polyline class="Stem" fill="none" stroke="#000000" stroke-width="3.22" stroke-linecap="round" stroke-linejoin="bevel" points="1076.45,1026.9 1076.45,1115.26"/>
<polyline class="Stem" fill="none" stroke="#000000" stroke-width="3.22" stroke-linecap="round" stroke-linejoin="bevel" points="1154.37,1076.51 1154.37,1140.06"/>
<polyline class="Stem" fill="none" stroke="#000000" stroke-width="3.22" stroke-linecap="round" stroke-linejoin="bevel" points="1261.73,1116.8 1261.73,1040.85"/>
<polyline class="Stem" fill="none" stroke="#000000" stroke-width="3.22" stroke-linecap="round" stroke-linejoin="bevel" points="1339.66,1092 1339.66,1028.44"/>
<polyline class="Stem" fill="none" stroke="#000000" stroke-width="3.22" stroke-linecap="round" stroke-linejoin="bevel" points="1446.36,1092 1446.36,1016.04"/>
<polyline class="Stem" fill="none" stroke="#000000" stroke-width="3.22" stroke-linecap="round" stroke-linejoin="bevel" points="1653.42,1104.4 1653.42,1025.34"/>
<polyline class="Stem" fill="none" stroke="#000000" stroke-width="3.22" stroke-linecap="round" stroke-linejoin="bevel" points="1788.32,1092 1788.32,1016.04"/>
<polyline class="Stem" fill="none" stroke="#000000" stroke-width="3.22" stroke-linecap="round" stroke-linejoin="bevel" points="1906.56,1104.4 1906.56,1034.65"/>
<polyline class="Stem" fill="none" stroke="#000000" stroke-width="3.22" stroke-linecap="round" stroke-linejoin="bevel" points="1960.31,1116.8 1960.31,1047.05"/>
<polyline class="Stem" fill="none" stroke="#000000" stroke-width="3.22" stroke-linecap="round" stroke-linejoin="bevel" points="2014.05,1129.2 2014.05,1059.45"/>
<polyline class="Stem" fill="none" stroke="#000000" stroke-width="3.22" stroke-linecap="round" stroke-linejoin="bevel" points="2128.81,1129.2 2128.81,1009.84"/>
<polyline class="Stem" fill="none" stroke="#000000" stroke-width="3.22" stroke-linecap="round" stroke-linejoin="bevel" points="2189.15,1104.4 2189.15,995.374"/>
<polyline class="Stem" fill="none" stroke="#000000" stroke-width="3.22" stroke-linecap="round" stroke-linejoin="bevel" points="2249.48,1067.19 2249.48,980.906"/>
<polyline class="Stem" fill="none" stroke="#000000" stroke-width="3.22" stroke-linecap="round" stroke-linejoin="bevel" points="2309.82,1042.39 2309.82,966.437"/>
<polyline class="Stem" fill="none" stroke="#000000" stroke-width="3.22" stroke-linecap="round" stroke-linejoin="bevel" points="2370.15,1092 2370.15,1016.04"/>
<polyline class="Stem" fill="none" stroke="#000000" stroke-width="3.22" stroke-linecap="round" stroke-linejoin="bevel" points="2430.49,1116.8 2430.49,1016.04"/>
<polyline class="Stem" fill="none" stroke="#000000" stroke-width="3.22" stroke-linecap="round" stroke-linejoin="bevel" points="2490.82,1092 2490.82,1016.04"/>
<polyline class="Stem" fill="none" stroke="#000000" stroke-width="3.22" stroke-linecap="round" stroke-linejoin="bevel" points="2551.16,1092 2551.16,1016.04"/>
<polyline class="Stem" fill="none" stroke="#000000" stroke-width="3.22" stroke-linecap="round" stroke-linejoin="bevel" points="2642.05,1092.84 2642.05,1016.04"/>
<path class="Note" transform="matrix(0.992126,0,0,0.992126,441.029,625.394)" d="M21.9688,-13.7656 C25.0938,-13.7656 27.6979,-12.9844 29.7813,-11.4219 C31.8646,-9.85938 32.9063,-7.61458 32.9063,-4.6875 C32.9063,-0.197917 30.5807,4 25.9297,7.90625 C21.2786,11.8125 16.2813,13.7656 10.9375,13.7656 C7.8125,13.7656 5.17708,12.9531 3.03125,11.3281 C1.01042,9.56771 0,7.35417 0,4.6875 C0,0.322917 2.3125,-3.84375 6.9375,-7.8125 C11.5625,-11.7813 16.5729,-13.7656 21.9688,-13.7656"/>
<path class="Note" transform="matrix(0.992126,0,0,0.992126,505.444,612.992)" d="M21.9688,-13.7656 C25.0938,-13.7656 27.6979,-12.9844 29.7813,-11.4219 C31.8646,-9.85938 32.9063,-7.61458 32.9063,-4.6875 C32.9063,-0.197917 30.5807,4 25.9297,7.90625 C21.2786,11.8125 16.2813,13.7656 10.9375,13.7656 C7.8125,13.7656 5.17708,12.9531 3.03125,11.3281 C1.01042,9.56771 0,7.35417 0,4.6875 C0,0.322917 2.3125,-3.84375 6.9375,-7.8125 C11.5625,-11.7813 16.5729,-13.7656 21.9688,-13.7656"/>
<path class="Note" transform="matrix(0.992126,0,0,0.992126,544.3,588.189)" d="M21.9688,-13.7656 C25.0938,-13.7656 27.6979,-12.9844 29.7813,-11.4219 C31.8646,-9.85938 32.9063,-7.61458 32.9063,-4.6875 C32.9063,-0.197917 30.5807,4 25.9297,7.90625 C21.2786,11.8125 16.2813,13.7656 10.9375,13.7656 C7.8125,13.7656 5.17708,12.9531 3.03125,11.3281 C1.01042,9.56771 0,7.35417 0,4.6875 C0,0.322917 2.3125,-3.84375 6.9375,-7.8125 C11.5625,-11.7813 16.5729,-13.7656 21.9688,-13.7656"/>
<path class="Note" transform="matrix(0.992126,0,0,0.992126,597.127,600.591)" d="M21.9688,-13.7656 C25.0938,-13.7656 27.6979,-12.9844 29.7813,-11.4219 C31.8646,-9.85938 32.9063,-7.61458 32.9063,-4.6875 C32.9063,-0.197917 30.5807,4 25.9297,7.90625 C21.2786,11.8125 16.2813,13.7656 10.9375,13.7656 C7.8125,13.7656 5.17708,12.9531 3.03125,11.3281 C1.01042,9.56771 0,7.35417 0,4.6875 C0,0.322917 2.3125,-3.84375 6.9375,-7.8125 C11.5625,-11.7813 16.5729,-13.7656 21.9688,-13.7656"/>
<path class="Note" transform="matrix(0.992126,0,0,0.992126,683.357,650.197)" d="M21.9688,-13.7656 C25.0938,-13.7656 27.6979,-12.9844 29.7813,-11.4219 C31.8646,-9.85938 32.9063,-7.61458 32.9063,-4.6875 C32.9063,-0.197917 30.5807,4 25.9297,7.90625 C21.2786,11.8125 16.2813,13.7656 10.9375,13.7656 C7.8125,13.7656 5.17708,12.9531 3.03125,11.3281 C1.01042,9.56771 0,7.35417 0,4.6875 C0,0.322917 2.3125,-3.84375 6.9375,-7.8125 C11.5625,-11.7813 16.5729,-13.7656 21.9688,-13.7656"/>
<path class="Note" transform="matrix(0.992126,0,0,0.992126,726.943,662.598)" d="M21.9688,-13.7656 C25.0938,-13.7656 27.6979,-12.9844 29.7813,-11.4219 C31.8646,-9.85938 32.9063,-7.61458 32.9063,-4.6875 C32.9063,-0.197917 30.5807,4 25.9297,7.90625 C21.2786,11.8125 16.2813,13.7656 10.9375,13.7656 C7.8125,13.7656 5.17708,12.9531 3.03125,11.3281 C1.01042,9.56771 0,7.35417 0,4.6875 C0,0.322917 2.3125,-3.84375 6.9375,-7.8125 C11.5625,-11.7813 16.5729,-13.7656 21.9688,-13.7656"/>
<path class="Note" transform="matrix(0.992126,0,0,0.992126,770.529,637.795)" d="M21.9688,-13.7656 C25.0938,-13.7656 27.6979,-12.9844 29.7813,-11.4219 C31.8646,-9.85938 32.9063,-7.61458 32.9063,-4.6875 C32.9063,-0.197917 30.5807,4 25.9297,7.90625 C21.2786,11.8125 16.2813,13.7656 10.9375,13.7656 C7.8125,13.7656 5.17708,12.9531 3.03125,11.3281 C1.01042,9.56771 0,7.35417 0,4.6875 C0,0.322917 2.3125,-3.84375 6.9375,-7.8125 C11.5625,-11.7813 16.5729,-13.7656 21.9688,-13.7656"/>
<path class="Note" transform="matrix(0.992126,0,0,0.992126,814.115,650.197)" d="M21.9688,-13.7656 C25.0938,-13.7656 27.6979,-12.9844 29.7813,-11.4219 C31.8646,-9.85938 32.9063,-7.61458 32.9063,-4.6875 C32.9063,-0.197917 30.5807,4 25.9297,7.90625 C21.2786,11.8125 16.2813,13.7656 10.9375,13.7656 C7.8125,13.7656 5.17708,12.9531 3.03125,11.3281 C1.01042,9.56771 0,7.35417 0,4.6875 C0,0.322917 2.3125,-3.84375 6.9375,-7.8125 C11.5625,-11.7813 16.5729,-13.7656 21.9688,-13.7656"/>
<path class="Note" transform="matrix(0.992126,0,0,0.992126,882.196,625.394)" d="M21.9688,-13.7656 C25.0938,-13.7656 27.6979,-12.9844 29.7813,-11.4219 C31.8646,-9.85938 32.9063,-7.61458 32.9063,-4.6875 C32.9063,-0.197917 30.5807,4 25.9297,7.90625 C21.2786,11.8125 16.2813,13.7656 10.9375,13.7656 C7.8125,13.7656 5.17708,12.9531 3.03125,11.3281 C1.01042,9.56771 0,7.35417 0,4.6875 C0,0.322917 2.3125,-3.84375 6.9375,-7.8125 C11.5625,-11.7813 16.5729,-13.7656 21.9688,-13.7656"/>
<path class="Note" transform="matrix(0.992126,0,0,0.992126,968.426,575.787)" d="M21.9688,-13.7656 C25.0938,-13.7656 27.6979,-12.9844 29.7813,-11.4219 C31.8646,-9.85938 32.9063,-7.61458 32.9063,-4.6875 C32.9063,-0.197917 30.5807,4 25.9297,7.90625 C21.2786,11.8125 16.2813,13.7656 10.9375,13.7656 C7.8125,13.7656 5.17708,12.9531 3.03125,11.3281 C1.01042,9.56771 0,7.35417 0,4.6875 C0,0.322917 2.3125,-3.84375 6.9375,-7.8125 C11.5625,-11.7813 16.5729,-13.7656 21.9688,-13.7656"/>
<path class="Note" transform="matrix(0.992126,0,0,0.992126,1009.79,563.386)" d="M21.9688,-13.7656 C25.0938,-13.7656 27.6979,-12.9844 29.7813,-11.4219 C31.8646,-9.85938 32.9063,-7.61458 32.9063,-4.6875 C32.9063,-0.197917 30.5807,4 25.9297,7.90625 C21.2786,11.8125 16.2813,13.7656 10.9375,13.7656 C7.8125,13.7656 5.17708,12.9531 3.03125,11.3281 C1.01042,9.56771 0,7.35417 0,4.6875 C0,0.322917 2.3125,-3.84375 6.9375,-7.8125 C11.5625,-11.7813 16.5729,-13.7656 21.9688,-13.7656"/>
<path class="Note" transform="matrix(0.992126,0,0,0.992126,1051.15,550.984)" d="M21.9688,-13.7656 C25.0938,-13.7656 27.6979,-12.9844 29.7813,-11.4219 C31.8646,-9.85938 32.9063,-7.61458 32.9063,-4.6875 C32.9063,-0.197917 30.5807,4 25.9297,7.90625 C21.2786,11.8125 16.2813,13.7656 10.9375,13.7656 C7.8125,13.7656 5.17708,12.9531 3.03125,11.3281 C1.01042,9.56771 0,7.35417 0,4.6875 C0,0.322917 2.3125,-3.84375 6.9375,-7.8125 C11.5625,-11.7813 16.5729,-13.7656 21.9688,-13.7656"/>
<path class="Note" transform="matrix(0.992126,0,0,0.992126,1146.1,563.386)" d="M21.9688,-13.7656 C25.0938,-13.7656 27.6979,-12.9844 29.7813,-11.4219 C31.8646,-9.85938 32.9063,-7.61458 32.9063,-4.6875 C32.9063,-0.197917 30.5807,4 25.9297,7.90625 C21.2786,11.8125 16.2813,13.7656 10.9375,13.7656 C7.8125,13.7656 5.17708,12.9531 3.03125,11.3281 C1.01042,9.56771 0,7.35417 0,4.6875 C0,0.322917 2.3125,-3.84375 6.9375,-7.8125 C11.5625,-11.7813 16.5729,-13.7656 21.9688,-13.7656"/>
<path class="Note" transform="matrix(0.992126,0,0,0.992126,1186.7,600.591)" d="M21.9688,-13.7656 C25.0938,-13.7656 27.6979,-12.9844 29.7813,-11.4219 C31.8646,-9.85938 32.9063,-7.61458 32.9063,-4.6875 C32.9063,-0.197917 30.5807,4 25.9297,7.90625 C21.2786,11.8125 16.2813,13.7656 10.9375,13.7656 C7.8125,13.7656 5.17708,12.9531 3.03125,11.3281 C1.01042,9.56771 0,7.35417 0,4.6875 C0,0.322917 2.3125,-3.84375 6.9375,-7.8125 C11.5625,-11.7813 16.5729,-13.7656 21.9688,-13.7656"/>
<path class="Note" transform="matrix(0.992126,0,0,0.992126,1227.29,637.795)" d="M21.9688,-13.7656 C25.0938,-13.7656 27.6979,-12.9844 29.7813,-11.4219 C31.8646,-9.85938 32.9063,-7.61458 32.9063,-4.6875 C32.9063,-0.197917 30.5807,4 25.9297,7.90625 C21.2786,11.8125 16.2813,13.7656 10.9375,13.7656 C7.8125,13.7656 5.17708,12.9531 3.03125,11.3281 C1.01042,9.56771 0,7.35417 0,4.6875 C0,0.322917 2.3125,-3.84375 6.9375,-7.8125 C11.5625,-11.7813 16.5729,-13.7656 21.9688,-13.7656"/>
<path class="Note" transform="matrix(0.992126,0,0,0.992126,1267.89,650.197)" d="M21.9688,-13.7656 C25.0938,-13.7656 27.6979,-12.9844 29.7813,-11.4219 C31.8646,-9.85938 32.9063,-7.61458 32.9063,-4.6875 C32.9063,-0.197917 30.5807,4 25.9297,7.90625 C21.2786,11.8125 16.2813,13.7656 10.9375,13.7656 C7.8125,13.7656 5.17708,12.9531 3.03125,11.3281 C1.01042,9.56771 0,7.35417 0,4.6875 C0,0.322917 2.3125,-3.84375 6.9375,-7.8125 C11.5625,-11.7813 16.5729,-13.7656 21.9688,-13.7656"/>
<path class="Note" transform="matrix(0.992126,0,0,0.992126,1308.48,625.394)" d="M21.9688,-13.7656 C25.0938,-13.7656 27.6979,-12.9844 29.7813,-11.4219 C31.8646,-9.85938 32.9063,-7.61458 32.9063,-4.6875 C32.9063,-0.197917 30.5807,4 25.9297,7.90625 C21.2786,11.8125 16.2813,13.7656 10.9375,13.7656 C7.8125,13.7656 5.17708,12.9531 3.03125,11.3281 C1.01042,9.56771 0,7.35417 0,4.6875 C0,0.322917 2.3125,-3.84375 6.9375,-7.8125 C11.5625,-11.7813 16.5729,-13.7656 21.9688,-13.7656"/>
<path class="Note" transform="matrix(0.992126,0,0,0.992126,1387.68,625.394)" d="M21.9688,-13.7656 C25.0938,-13.7656 27.6979,-12.9844 29.7813,-11.4219 C31.8646,-9.85938 32.9063,-7.61458 32.9063,-4.6875 C32.9063,-0.197917 30.5807,4 25.9297,7.90625 C21.2786,11.8125 16.2813,13.7656 10.9375,13.7656 C7.8125,13.7656 5.17708,12.9531 3.03125,11.3281 C1.01042,9.56771 0,7.35417 0,4.6875 C0,0.322917 2.3125,-3.84375 6.9375,-7.8125 C11.5625,-11.7813 16.5729,-13.7656 21.9688,-13.7656"/>
<path class="Note" transform="matrix(0.992126,0,0,0.992126,1473.91,625.394)" d="M21.9688,-13.7656 C25.0938,-13.7656 27.6979,-12.9844 29.7813,-11.4219 C31.8646,-9.85938 32.9063,-7.61458 32.9063,-4.6875 C32.9063,-0.197917 30.5807,4 25.9297,7.90625 C21.2786,11.8125 16.2813,13.7656 10.9375,13.7656 C7.8125,13.7656 5.17708,12.9531 3.03125,11.3281 C1.01042,9.56771 0,7.35417 0,4.6875 C0,0.322917 2.3125,-3.84375 6.9375,-7.8125 C11.5625,-11.7813 16.5729,-13.7656 21.9688,-13.7656"/>
<path class="Note" transform="matrix(0.992126,0,0,0.992126,1512.77,650.197)" d="M21.9688,-13.7656 C25.0938,-13.7656 27.6979,-12.9844 29.7813,-11.4219 C31.8646,-9.85938 32.9063,-7.61458 32.9063,-4.6875 C32.9063,-0.197917 30.5807,4 25.9297,7.90625 C21.2786,11.8125 16.2813,13.7656 10.9375,13.7656 C7.8125,13.7656 5.17708,12.9531 3.03125,11.3281 C1.01042,9.56771 0,7.35417 0,4.6875 C0,0.322917 2.3125,-3.84375 6.9375,-7.8125 C11.5625,-11.7813 16.5729,-13.7656 21.9688,-13.7656"/>
<path class="Note" transform="matrix(0.992126,0,0,0.992126,1551.62,625.394)" d="M21.9688,-13.7656 C25.0938,-13.7656 27.6979,-12.9844 29.7813,-11.4219 C31.8646,-9.85938 32.9063,-7.61458 32.9063,-4.6875 C32.9063,-0.197917 30.5807,4 25.9297,7.90625 C21.2786,11.8125 16.2813,13.7656 10.9375,13.7656 C7.8125,13.7656 5.17708,12.9531 3.03125,11.3281 C1.01042,9.56771 0,7.35417 0,4.6875 C0,0.322917 2.3125,-3.84375 6.9375,-7.8125 C11.5625,-11.7813 16.5729,-13.7656 21.9688,-13.7656"/>
<path class="Note" transform="matrix(0.992126,0,0,0.992126,1696.88,600.591)" d="M21.9688,-13.7656 C25.0938,-13.7656 27.6979,-12.9844 29.7813,-11.4219 C31.8646,-9.85938 32.9063,-7.61458 32.9063,-4.6875 C32.9063,-0.197917 30.5807,4 25.9297,7.90625 C21.2786,11.8125 16.2813,13.7656 10.9375,13.7656 C7.8125,13.7656 5.17708,12.9531 3.03125,11.3281 C1.01042,9.56771 0,7.35417 0,4.6875 C0,0.322917 2.3125,-3.84375 6.9375,-7.8125 C11.5625,-11.7813 16.5729,-13.7656 21.9688,-13.7656"/>
<path class="Note" transform="matrix(0.992126,0,0,0.992126,1744.1,625.394)" d="M21.9688,-13.7656 C25.0938,-13.7656 27.6979,-12.9844 29.7813,-11.4219 C31.8646,-9.85938 32.9063,-7.61458 32.9063,-4.6875 C32.9063,-0.197917 30.5807,4 25.9297,7.90625 C21.2786,11.8125 16.2813,13.7656 10.9375,13.7656 C7.8125,13.7656 5.17708,12.9531 3.03125,11.3281 C1.01042,9.56771 0,7.35417 0,4.6875 C0,0.322917 2.3125,-3.84375 6.9375,-7.8125 C11.5625,-11.7813 16.5729,-13.7656 21.9688,-13.7656"/>
<path class="Note" transform="matrix(0.992126,0,0,0.992126,1818.25,637.795)" d="M21.9688,-13.7656 C25.0938,-13.7656 27.6979,-12.9844 29.7813,-11.4219 C31.8646,-9.85938 32.9063,-7.61458 32.9063,-4.6875 C32.9063,-0.197917 30.5807,4 25.9297,7.90625 C21.2786,11.8125 16.2813,13.7656 10.9375,13.7656 C7.8125,13.7656 5.17708,12.9531 3.03125,11.3281 C1.01042,9.56771 0,7.35417 0,4.6875 C0,0.322917 2.3125,-3.84375 6.9375,-7.8125 C11.5625,-11.7813 16.5729,-13.7656 21.9688,-13.7656"/>
<path class="Note" transform="matrix(0.992126,0,0,0.992126,1865.47,625.394)" d="M21.9688,-13.7656 C25.0938,-13.7656 27.6979,-12.9844 29.7813,-11.4219 C31.8646,-9.85938 32.9063,-7.61458 32.9063,-4.6875 C32.9063,-0.197917 30.5807,4 25.9297,7.90625 C21.2786,11.8125 16.2813,13.7656 10.9375,13.7656 C7.8125,13.7656 5.17708,12.9531 3.03125,11.3281 C1.01042,9.56771 0,7.35417 0,4.6875 C0,0.322917 2.3125,-3.84375 6.9375,-7.8125 C11.5625,-11.7813 16.5729,-13.7656 21.9688,-13.7656"/>
<path class="Note" transform="matrix(0.992126,0,0,0.992126,1912.68,575.787)" d="M21.9688,-13.7656 C25.0938,-13.7656 27.6979,-12.9844 29.7813,-11.4219 C31.8646,-9.85938 32.9063,-7.61458 32.9063,-4.6875 C32.9063,-0.197917 30.5807,4 25.9297,7.90625 C21.2786,11.8125 16.2813,13.7656 10.9375,13.7656 C7.8125,13.7656 5.17708,12.9531 3.03125,11.3281 C1.01042,9.56771 0,7.35417 0,4.6875 C0,0.322917 2.3125,-3.84375 6.9375,-7.8125 C11.5625,-11.7813 16.5729,-13.7656 21.9688,-13.7656"/>
<path class="Note" transform="matrix(0.992126,0,0,0.992126,1986.83,550.984)" d="M21.9688,-13.7656 C25.0938,-13.7656 27.6979,-12.9844 29.7813,-11.4219 C31.8646,-9.85938 32.9063,-7.61458 32.9063,-4.6875 C32.9063,-0.197917 30.5807,4 25.9297,7.90625 C21.2786,11.8125 16.2813,13.7656 10.9375,13.7656 C7.8125,13.7656 5.17708,12.9531 3.03125,11.3281 C1.01042,9.56771 0,7.35417 0,4.6875 C0,0.322917 2.3125,-3.84375 6.9375,-7.8125 C11.5625,-11.7813 16.5729,-13.7656 21.9688,-13.7656"/>
<path class="Note" transform="matrix(0.992126,0,0,0.992126,2045.8,538.583)" d="M21.9688,-13.7656 C25.0938,-13.7656 27.6979,-12.9844 29.7813,-11.4219 C31.8646,-9.85938 32.9063,-7.61458 32.9063,-4.6875 C32.9063,-0.197917 30.5807,4 25.9297,7.90625 C21.2786,11.8125 16.2813,13.7656 10.9375,13.7656 C7.8125,13.7656 5.17708,12.9531 3.03125,11.3281 C1.01042,9.56771 0,7.35417 0,4.6875 C0,0.322917 2.3125,-3.84375 6.9375,-7.8125 C11.5625,-11.7813 16.5729,-13.7656 21.9688,-13.7656"/>
<path class="Note" transform="matrix(0.992126,0,0,0.992126,2133.55,550.984)" d="M21.9688,-13.7656 C25.0938,-13.7656 27.6979,-12.9844 29.7813,-11.4219 C31.8646,-9.85938 32.9063,-7.61458 32.9063,-4.6875 C32.9063,-0.197917 30.5807,4 25.9297,7.90625 C21.2786,11.8125 16.2813,13.7656 10.9375,13.7656 C7.8125,13.7656 5.17708,12.9531 3.03125,11.3281 C1.01042,9.56771 0,7.35417 0,4.6875 C0,0.322917 2.3125,-3.84375 6.9375,-7.8125 C11.5625,-11.7813 16.5729,-13.7656 21.9688,-13.7656"/>
<path class="Note" transform="matrix(0.992126,0,0,0.992126,2183.16,575.787)" d="M21.9688,-13.7656 C25.0938,-13.7656 27.6979,-12.9844 29.7813,-11.4219 C31.8646,-9.85938 32.9063,-7.61458 32.9063,-4.6875 C32.9063,-0.197917 30.5807,4 25.9297,7.90625 C21.2786,11.8125 16.2813,13.7656 10.9375,13.7656 C7.8125,13.7656 5.17708,12.9531 3.03125,11.3281 C1.01042,9.56771 0,7.35417 0,4.6875 C0,0.322917 2.3125,-3.84375 6.9375,-7.8125 C11.5625,-11.7813 16.5729,-13.7656 21.9688,-13.7656"/>
<path class="Note" transform="matrix(0.992126,0,0,0.992126,2232.76,600.591)" d="M21.9688,-13.7656 C25.0938,-13.7656 27.6979,-12.9844 29.7813,-11.4219 C31.8646,-9.85938 32.9063,-7.61458 32.9063,-4.6875 C32.9063,-0.197917 30.5807,4 25.9297,7.90625 C21.2786,11.8125 16.2813,13.7656 10.9375,13.7656 C7.8125,13.7656 5.17708,12.9531 3.03125,11.3281 C1.01042,9.56771 0,7.35417 0,4.6875 C0,0.322917 2.3125,-3.84375 6.9375,-7.8125 C11.5625,-11.7813 16.5729,-13.7656 21.9688,-13.7656"/>
<path class="Note" transform="matrix(0.992126,0,0,0.992126,2271.62,575.787)" d="M21.9688,-13.7656 C25.0938,-13.7656 27.6979,-12.9844 29.7813,-11.4219 C31.8646,-9.85938 32.9063,-7.61458 32.9063,-4.6875 C32.9063,-0.197917 30.5807,4 25.9297,7.90625 C21.2786,11.8125 16.2813,13.7656 10.9375,13.7656 C7.8125,13.7656 5.17708,12.9531 3.03125,11.3281 C1.01042,9.56771 0,7.35417 0,4.6875 C0,0.322917 2.3125,-3.84375 6.9375,-7.8125 C11.5625,-11.7813 16.5729,-13.7656 21.9688,-13.7656"/>
<path class="Note" transform="matrix(0.992126,0,0,0.992126,2310.48,588.189)" d="M21.9688,-13.7656 C25.0938,-13.7656 27.6979,-12.9844 29.7813,-11.4219 C31.8646,-9.85938 32.9063,-7.61458 32.9063,-4.6875 C32.9063,-0.197917 30.5807,4 25.9297,7.90625 C21.2786,11.8125 16.2813,13.7656 10.9375,13.7656 C7.8125,13.7656 5.17708,12.9531 3.03125,11.3281 C1.01042,9.56771 0,7.35417 0,4.6875 C0,0.322917 2.3125,-3.84375 6.9375,-7.8125 C11.5625,-11.7813 16.5729,-13.7656 21.9688,-13.7656"/>
<path class="Note" transform="matrix(0.992126,0,0,0.992126,2396.7,625.394)" d="M21.9688,-13.7656 C25.0938,-13.7656 27.6979,-12.9844 29.7813,-11.4219 C31.8646,-9.85938 32.9063,-7.61458 32.9063,-4.6875 C32.9063,-0.197917 30.5807,4 25.9297,7.90625 C21.2786,11.8125 16.2813,13.7656 10.9375,13.7656 C7.8125,13.7656 5.17708,12.9531 3.03125,11.3281 C1.01042,9.56771 0,7.35417 0,4.6875 C0,0.322917 2.3125,-3.84375 6.9375,-7.8125 C11.5625,-11.7813 16.5729,-13.7656 21.9688,-13.7656"/>
<path class="Note" transform="matrix(0.992126,0,0,0.992126,2467.32,588.189)" d="M21.9688,-13.7656 C25.0938,-13.7656 27.6979,-12.9844 29.7813,-11.4219 C31.8646,-9.85938 32.9063,-7.61458 32.9063,-4.6875 C32.9063,-0.197917 30.5807,4 25.9297,7.90625 C21.2786,11.8125 16.2813,13.7656 10.9375,13.7656 C7.8125,13.7656 5.17708,12.9531 3.03125,11.3281 C1.01042,9.56771 0,7.35417 0,4.6875 C0,0.322917 2.3125,-3.84375 6.9375,-7.8125 C11.5625,-11.7813 16.5729,-13.7656 21.9688,-13.7656"/>
<path class="Note" transform="matrix(0.992126,0,0,0.992126,2553.55,550.984)" d="M21.9688,-13.7656 C25.0938,-13.7656 27.6979,-12.9844 29.7813,-11.4219 C31.8646,-9.85938 32.9063,-7.61458 32.9063,-4.6875 C32.9063,-0.197917 30.5807,4 25.9297,7.90625 C21.2786,11.8125 16.2813,13.7656 10.9375,13.7656 C7.8125,13.7656 5.17708,12.9531 3.03125,11.3281 C1.01042,9.56771 0,7.35417 0,4.6875 C0,0.322917 2.3125,-3.84375 6.9375,-7.8125 C11.5625,-11.7813 16.5729,-13.7656 21.9688,-13.7656"/>
<path class="Note" transform="matrix(0.992126,0,0,0.992126,2600.13,588.189)" d="M21.9688,-13.7656 C25.0938,-13.7656 27.6979,-12.9844 29.7813,-11.4219 C31.8646,-9.85938 32.9063,-7.61458 32.9063,-4.6875 C32.9063,-0.197917 30.5807,4 25.9297,7.90625 C21.2786,11.8125 16.2813,13.7656 10.9375,13.7656 C7.8125,13.7656 5.17708,12.9531 3.03125,11.3281 C1.01042,9.56771 0,7.35417 0,4.6875 C0,0.322917 2.3125,-3.84375 6.9375,-7.8125 C11.5625,-11.7813 16.5729,-13.7656 21.9688,-13.7656"/>
<path class="Note" transform="matrix(0.992126,0,0,0.992126,2646.71,563.386)" d="M21.9688,-13.7656 C25.0938,-13.7656 27.6979,-12.9844 29.7813,-11.4219 C31.8646,-9.85938 32.9063,-7.61458 32.9063,-4.6875 C32.9063,-0.197917 30.5807,4 25.9297,7.90625 C21.2786,11.8125 16.2813,13.7656 10.9375,13.7656 C7.8125,13.7656 5.17708,12.9531 3.03125,11.3281 C1.01042,9.56771 0,7.35417 0,4.6875 C0,0.322917 2.3125,-3.84375 6.9375,-7.8125 C11.5625,-11.7813 16.5729,-13.7656 21.9688,-13.7656"/>
<path class="Note" transform="matrix(0.992126,0,0,0.992126,2693.29,575.787)" d="M21.9688,-13.7656 C25.0938,-13.7656 27.6979,-12.9844 29.7813,-11.4219 C31.8646,-9.85938 32.9063,-7.61458 32.9063,-4.6875 C32.9063,-0.197917 30.5807,4 25.9297,7.90625 C21.2786,11.8125 16.2813,13.7656 10.9375,13.7656 C7.8125,13.7656 5.17708,12.9531 3.03125,11.3281 C1.01042,9.56771 0,7.35417 0,4.6875 C0,0.322917 2.3125,-3.84375 6.9375,-7.8125 C11.5625,-11.7813 16.5729,-13.7656 21.9688,-13.7656"/>
<path class="Note" transform="matrix(0.992126,0,0,0.992126,2732.15,563.386)" d="M21.9688,-13.7656 C25.0938,-13.7656 27.6979,-12.9844 29.7813,-11.4219 C31.8646,-9.85938 32.9063,-7.61458 32.9063,-4.6875 C32.9063,-0.197917 30.5807,4 25.9297,7.90625 C21.2786,11.8125 16.2813,13.7656 10.9375,13.7656 C7.8125,13.7656 5.17708,12.9531 3.03125,11.3281 C1.01042,9.56771 0,7.35417 0,4.6875 C0,0.322917 2.3125,-3.84375 6.9375,-7.8125 C11.5625,-11.7813 16.5729,-13.7656 21.9688,-13.7656"/>
<path class="Note" transform="matrix(0.992126,0,0,0.992126,2771.01,600.591)" d="M21.9688,-13.7656 C25.0938,-13.7656 27.6979,-12.9844 29.7813,-11.4219 C31.8646,-9.85938 32.9063,-7.61458 32.9063,-4.6875 C32.9063,-0.197917 30.5807,4 25.9297,7.90625 C21.2786,11.8125 16.2813,13.7656 10.9375,13.7656 C7.8125,13.7656 5.17708,12.9531 3.03125,11.3281 C1.01042,9.56771 0,7.35417 0,4.6875 C0,0.322917 2.3125,-3.84375 6.9375,-7.8125 C11.5625,-11.7813 16.5729,-13.7656 21.9688,-13.7656"/>
<path class="Note" transform="matrix(0.992126,0,0,0.992126,413.606,1121.46)" d="M21.9688,-13.7656 C25.0938,-13.7656 27.6979,-12.9844 29.7813,-11.4219 C31.8646,-9.85938 32.9063,-7.61458 32.9063,-4.6875 C32.9063,-0.197917 30.5807,4 25.9297,7.90625 C21.2786,11.8125 16.2813,13.7656 10.9375,13.7656 C7.8125,13.7656 5.17708,12.9531 3.03125,11.3281 C1.01042,9.56771 0,7.35417 0,4.6875 C0,0.322917 2.3125,-3.84375 6.9375,-7.8125 C11.5625,-11.7813 16.5729,-13.7656 21.9688,-13.7656"/>
<path class="Note" transform="matrix(0.992126,0,0,0.992126,577.662,1034.65)" d="M21.9688,-13.7656 C25.0938,-13.7656 27.6979,-12.9844 29.7813,-11.4219 C31.8646,-9.85938 32.9063,-7.61458 32.9063,-4.6875 C32.9063,-0.197917 30.5807,4 25.9297,7.90625 C21.2786,11.8125 16.2813,13.7656 10.9375,13.7656 C7.8125,13.7656 5.17708,12.9531 3.03125,11.3281 C1.01042,9.56771 0,7.35417 0,4.6875 C0,0.322917 2.3125,-3.84375 6.9375,-7.8125 C11.5625,-11.7813 16.5729,-13.7656 21.9688,-13.7656"/>
<path class="Note" transform="matrix(0.992126,0,0,0.992126,690.522,1022.24)" d="M21.9688,-13.7656 C25.0938,-13.7656 27.6979,-12.9844 29.7813,-11.4219 C31.8646,-9.85938 32.9063,-7.61458 32.9063,-4.6875 C32.9063,-0.197917 30.5807,4 25.9297,7.90625 C21.2786,11.8125 16.2813,13.7656 10.9375,13.7656 C7.8125,13.7656 5.17708,12.9531 3.03125,11.3281 C1.01042,9.56771 0,7.35417 0,4.6875 C0,0.322917 2.3125,-3.84375 6.9375,-7.8125 C11.5625,-11.7813 16.5729,-13.7656 21.9688,-13.7656"/>
<path class="Note" transform="matrix(0.992126,0,0,0.992126,808.051,1047.05)" d="M21.9688,-13.7656 C25.0938,-13.7656 27.6979,-12.9844 29.7813,-11.4219 C31.8646,-9.85938 32.9063,-7.61458 32.9063,-4.6875 C32.9063,-0.197917 30.5807,4 25.9297,7.90625 C21.2786,11.8125 16.2813,13.7656 10.9375,13.7656 C7.8125,13.7656 5.17708,12.9531 3.03125,11.3281 C1.01042,9.56771 0,7.35417 0,4.6875 C0,0.322917 2.3125,-3.84375 6.9375,-7.8125 C11.5625,-11.7813 16.5729,-13.7656 21.9688,-13.7656"/>
<path class="Note" transform="matrix(0.992126,0,0,0.992126,868.292,1071.85)" d="M21.9688,-13.7656 C25.0938,-13.7656 27.6979,-12.9844 29.7813,-11.4219 C31.8646,-9.85938 32.9063,-7.61458 32.9063,-4.6875 C32.9063,-0.197917 30.5807,4 25.9297,7.90625 C21.2786,11.8125 16.2813,13.7656 10.9375,13.7656 C7.8125,13.7656 5.17708,12.9531 3.03125,11.3281 C1.01042,9.56771 0,7.35417 0,4.6875 C0,0.322917 2.3125,-3.84375 6.9375,-7.8125 C11.5625,-11.7813 16.5729,-13.7656 21.9688,-13.7656"/>
<path class="Note" transform="matrix(0.992126,0,0,0.992126,985.821,1034.65)" d="M21.9688,-13.7656 C25.0938,-13.7656 27.6979,-12.9844 29.7813,-11.4219 C31.8646,-9.85938 32.9063,-7.61458 32.9063,-4.6875 C32.9063,-0.197917 30.5807,4 25.9297,7.90625 C21.2786,11.8125 16.2813,13.7656 10.9375,13.7656 C7.8125,13.7656 5.17708,12.9531 3.03125,11.3281 C1.01042,9.56771 0,7.35417 0,4.6875 C0,0.322917 2.3125,-3.84375 6.9375,-7.8125 C11.5625,-11.7813 16.5729,-13.7656 21.9688,-13.7656"/>
<path class="Note" transform="matrix(0.992126,0,0,0.992126,1074.83,1022.24)" d="M21.9688,-13.7656 C25.0938,-13.7656 27.6979,-12.9844 29.7813,-11.4219 C31.8646,-9.85938 32.9063,-7.61458 32.9063,-4.6875 C32.9063,-0.197917 30.5807,4 25.9297,7.90625 C21.2786,11.8125 16.2813,13.7656 10.9375,13.7656 C7.8125,13.7656 5.17708,12.9531 3.03125,11.3281 C1.01042,9.56771 0,7.35417 0,4.6875 C0,0.322917 2.3125,-3.84375 6.9375,-7.8125 C11.5625,-11.7813 16.5729,-13.7656 21.9688,-13.7656"/>
<path class="Note" transform="matrix(0.992126,0,0,0.992126,1152.76,1071.85)" d="M21.9688,-13.7656 C25.0938,-13.7656 27.6979,-12.9844 29.7813,-11.4219 C31.8646,-9.85938 32.9063,-7.61458 32.9063,-4.6875 C32.9063,-0.197917 30.5807,4 25.9297,7.90625 C21.2786,11.8125 16.2813,13.7656 10.9375,13.7656 C7.8125,13.7656 5.17708,12.9531 3.03125,11.3281 C1.01042,9.56771 0,7.35417 0,4.6875 C0,0.322917 2.3125,-3.84375 6.9375,-7.8125 C11.5625,-11.7813 16.5729,-13.7656 21.9688,-13.7656"/>
<path class="Note" transform="matrix(0.992126,0,0,0.992126,1230.69,1121.46)" d="M21.9688,-13.7656 C25.0938,-13.7656 27.6979,-12.9844 29.7813,-11.4219 C31.8646,-9.85938 32.9063,-7.61458 32.9063,-4.6875 C32.9063,-0.197917 30.5807,4 25.9297,7.90625 C21.2786,11.8125 16.2813,13.7656 10.9375,13.7656 C7.8125,13.7656 5.17708,12.9531 3.03125,11.3281 C1.01042,9.56771 0,7.35417 0,4.6875 C0,0.322917 2.3125,-3.84375 6.9375,-7.8125 C11.5625,-11.7813 16.5729,-13.7656 21.9688,-13.7656"/>
<path class="Note" transform="matrix(0.992126,0,0,0.992126,1308.62,1096.65)" d="M21.9688,-13.7656 C25.0938,-13.7656 27.6979,-12.9844 29.7813,-11.4219 C31.8646,-9.85938 32.9063,-7.61458 32.9063,-4.6875 C32.9063,-0.197917 30.5807,4 25.9297,7.90625 C21.2786,11.8125 16.2813,13.7656 10.9375,13.7656 C7.8125,13.7656 5.17708,12.9531 3.03125,11.3281 C1.01042,9.56771 0,7.35417 0,4.6875 C0,0.322917 2.3125,-3.84375 6.9375,-7.8125 C11.5625,-11.7813 16.5729,-13.7656 21.9688,-13.7656"/>
<path class="Note" transform="matrix(0.992126,0,0,0.992126,1415.32,1096.65)" d="M21.9688,-13.7656 C25.0938,-13.7656 27.6979,-12.9844 29.7813,-11.4219 C31.8646,-9.85938 32.9063,-7.61458 32.9063,-4.6875 C32.9063,-0.197917 30.5807,4 25.9297,7.90625 C21.2786,11.8125 16.2813,13.7656 10.9375,13.7656 C7.8125,13.7656 5.17708,12.9531 3.03125,11.3281 C1.01042,9.56771 0,7.35417 0,4.6875 C0,0.322917 2.3125,-3.84375 6.9375,-7.8125 C11.5625,-11.7813 16.5729,-13.7656 21.9688,-13.7656"/>
<path class="Note" transform="matrix(0.992126,0,0,0.992126,1622.38,1109.06)" d="M21.9688,-13.7656 C25.0938,-13.7656 27.6979,-12.9844 29.7813,-11.4219 C31.8646,-9.85938 32.9063,-7.61458 32.9063,-4.6875 C32.9063,-0.197917 30.5807,4 25.9297,7.90625 C21.2786,11.8125 16.2813,13.7656 10.9375,13.7656 C7.8125,13.7656 5.17708,12.9531 3.03125,11.3281 C1.01042,9.56771 0,7.35417 0,4.6875 C0,0.322917 2.3125,-3.84375 6.9375,-7.8125 C11.5625,-11.7813 16.5729,-13.7656 21.9688,-13.7656"/>
<path class="Note" transform="matrix(0.992126,0,0,0.992126,1757.28,1096.65)" d="M21.9688,-13.7656 C25.0938,-13.7656 27.6979,-12.9844 29.7813,-11.4219 C31.8646,-9.85938 32.9063,-7.61458 32.9063,-4.6875 C32.9063,-0.197917 30.5807,4 25.9297,7.90625 C21.2786,11.8125 16.2813,13.7656 10.9375,13.7656 C7.8125,13.7656 5.17708,12.9531 3.03125,11.3281 C1.01042,9.56771 0,7.35417 0,4.6875 C0,0.322917 2.3125,-3.84375 6.9375,-7.8125 C11.5625,-11.7813 16.5729,-13.7656 21.9688,-13.7656"/>
<path class="Note" transform="matrix(0.992126,0,0,0.992126,1875.52,1109.06)" d="M21.9688,-13.7656 C25.0938,-13.7656 27.6979,-12.9844 29.7813,-11.4219 C31.8646,-9.85938 32.9063,-7.61458 32.9063,-4.6875 C32.9063,-0.197917 30.5807,4 25.9297,7.90625 C21.2786,11.8125 16.2813,13.7656 10.9375,13.7656 C7.8125,13.7656 5.17708,12.9531 3.03125,11.3281 C1.01042,9.56771 0,7.35417 0,4.6875 C0,0.322917 2.3125,-3.84375 6.9375,-7.8125 C11.5625,-11.7813 16.5729,-13.7656 21.9688,-13.7656"/>
<path class="Note" transform="matrix(0.992126,0,0,0.992126,1929.26,1121.46)" d="M21.9688,-13.7656 C25.0938,-13.7656 27.6979,-12.9844 29.7813,-11.4219 C31.8646,-9.85938 32.9063,-7.61458 32.9063,-4.6875 C32.9063,-0.197917 30.5807,4 25.9297,7.90625 C21.2786,11.8125 16.2813,13.7656 10.9375,13.7656 C7.8125,13.7656 5.17708,12.9531 3.03125,11.3281 C1.01042,9.56771 0,7.35417 0,4.6875 C0,0.322917 2.3125,-3.84375 6.9375,-7.8125 C11.5625,-11.7813 16.5729,-13.7656 21.9688,-13.7656"/>
<path class="Note" transform="matrix(0.992126,0,0,0.992126,1983.01,1133.86)" d="M21.9688,-13.7656 C25.0938,-13.7656 27.6979,-12.9844 29.7813,-11.4219 C31.8646,-9.85938 32.9063,-7.61458 32.9063,-4.6875 C32.9063,-0.197917 30.5807,4 25.9297,7.90625 C21.2786,11.8125 16.2813,13.7656 10.9375,13.7656 C7.8125,13.7656 5.17708,12.9531 3.03125,11.3281 C1.01042,9.56771 0,7.35417 0,4.6875 C0,0.322917 2.3125,-3.84375 6.9375,-7.8125 C11.5625,-11.7813 16.5729,-13.7656 21.9688,-13.7656"/>
<path class="Note" transform="matrix(0.992126,0,0,0.992126,2097.77,1133.86)" d="M21.9688,-13.7656 C25.0938,-13.7656 27.6979,-12.9844 29.7813,-11.4219 C31.8646,-9.85938 32.9063,-7.61458 32.9063,-4.6875 C32.9063,-0.197917 30.5807,4 25.9297,7.90625 C21.2786,11.8125 16.2813,13.7656 10.9375,13.7656 C7.8125,13.7656 5.17708,12.9531 3.03125,11.3281 C1.01042,9.56771 0,7.35417 0,4.6875 C0,0.322917 2.3125,-3.84375 6.9375,-7.8125 C11.5625,-11.7813 16.5729,-13.7656 21.9688,-13.7656"/>
<path class="Note" transform="matrix(0.992126,0,0,0.992126,2158.1,1109.06)" d="M21.9688,-13.7656 C25.0938,-13.7656 27.6979,-12.9844 29.7813,-11.4219 C31.8646,-9.85938 32.9063,-7.61458 32.9063,-4.6875 C32.9063,-0.197917 30.5807,4 25.9297,7.90625 C21.2786,11.8125 16.2813,13.7656 10.9375,13.7656 C7.8125,13.7656 5.17708,12.9531 3.03125,11.3281 C1.01042,9.56771 0,7.35417 0,4.6875 C0,0.322917 2.3125,-3.84375 6.9375,-7.8125 C11.5625,-11.7813 16.5729,-13.7656 21.9688,-13.7656"/>
<path class="Note" transform="matrix(0.992126,0,0,0.992126,2218.44,1071.85)" d="M21.9688,-13.7656 C25.0938,-13.7656 27.6979,-12.9844 29.7813,-11.4219 C31.8646,-9.85938 32.9063,-7.61458 32.9063,-4.6875 C32.9063,-0.197917 30.5807,4 25.9297,7.90625 C21.2786,11.8125 16.2813,13.7656 10.9375,13.7656 C7.8125,13.7656 5.17708,12.9531 3.03125,11.3281 C1.01042,9.56771 0,7.35417 0,4.6875 C0,0.322917 2.3125,-3.84375 6.9375,-7.8125 C11.5625,-11.7813 16.5729,-13.7656 21.9688,-13.7656"/>
<path class="Note" transform="matrix(0.992126,0,0,0.992126,2278.77,1047.05)" d="M21.9688,-13.7656 C25.0938,-13.7656 27.6979,-12.9844 29.7813,-11.4219 C31.8646,-9.85938 32.9063,-7.61458 32.9063,-4.6875 C32.9063,-0.197917 30.5807,4 25.9297,7.90625 C21.2786,11.8125 16.2813,13.7656 10.9375,13.7656 C7.8125,13.7656 5.17708,12.9531 3.03125,11.3281 C1.01042,9.56771 0,7.35417 0,4.6875 C0,0.322917 2.3125,-3.84375 6.9375,-7.8125 C11.5625,-11.7813 16.5729,-13.7656 21.9688,-13.7656"/>
<path class="Note" transform="matrix(0.992126,0,0,0.992126,2339.11,1096.65)" d="M21.9688,-13.7656 C25.0938,-13.7656 27.6979,-12.9844 29.7813,-11.4219 C31.8646,-9.85938 32.9063,-7.61458 32.9063,-4.6875 C32.9063,-0.197917 30.5807,4 25.9297,7.90625 C21.2786,11.8125 16.2813,13.7656 10.9375,13.7656 C7.8125,13.7656 5.17708,12.9531 3.03125,11.3281 C1.01042,9.56771 0,7.35417 0,4.6875 C0,0.322917 2.3125,-3.84375 6.9375,-7.8125 C11.5625,-11.7813 16.5729,-13.7656 21.9688,-13.7656"/>
<path class="Note" transform="matrix(0.992126,0,0,0.992126,2399.44,1121.46)" d="M21.9688,-13.7656 C25.0938,-13.7656 27.6979,-12.9844 29.7813,-11.4219 C31.8646,-9.85938 32.9063,-7.61458 32.9063,-4.6875 C32.9063,-0.197917 30.5807,4 25.9297,7.90625 C21.2786,11.8125 16.2813,13.7656 10.9375,13.7656 C7.8125,13.7656 5.17708,12.9531 3.03125,11.3281 C1.01042,9.56771 0,7.35417 0,4.6875 C0,0.322917 2.3125,-3.84375 6.9375,-7.8125 C11.5625,-11.7813 16.5729,-13.7656 21.9688,-13.7656"/>
<path class="Note" transform="matrix(0.992126,0,0,0.992126,2459.78,1096.65)" d="M21.9688,-13.7656 C25.0938,-13.7656 27.6979,-12.9844 29.7813,-11.4219 C31.8646,-9.85938 32.9063,-7.61458 32.9063,-4.6875 C32.9063,-0.197917 30.5807,4 25.9297,7.90625 C21.2786,11.8125 16.2813,13.7656 10.9375,13.7656 C7.8125,13.7656 5.17708,12.9531 3.03125,11.3281 C1.01042,9.56771 0,7.35417 0,4.6875 C0,0.322917 2.3125,-3.84375 6.9375,-7.8125 C11.5625,-11.7813 16.5729,-13.7656 21.9688,-13.7656"/>
<path class="Note" transform="matrix(0.992126,0,0,0.992126,2520.11,1096.65)" d="M21.9688,-13.7656 C25.0938,-13.7656 27.6979,-12.9844 29.7813,-11.4219 C31.8646,-9.85938 32.9063,-7.61458 32.9063,-4.6875 C32.9063,-0.197917 30.5807,4 25.9297,7.90625 C21.2786,11.8125 16.2813,13.7656 10.9375,13.7656 C7.8125,13.7656 5.17708,12.9531 3.03125,11.3281 C1.01042,9.56771 0,7.35417 0,4.6875 C0,0.322917 2.3125,-3.84375 6.9375,-7.8125 C11.5625,-11.7813 16.5729,-13.7656 21.9688,-13.7656"/>
<path class="Note" transform="matrix(0.992126,0,0,0.992126,2609.22,1096.65)" d="M7.42188,10.6406 C9.30729,10.6406 13.263,8.6875 19.2891,4.78125 C25.3151,0.875 28.8646,-1.74479 29.9375,-3.07813 C31.0104,-4.41146 31.5469,-5.59896 31.5469,-6.64063 C31.5469,-7.68229 31.1224,-8.60938 30.2734,-9.42188 C29.4245,-10.2344 28.4479,-10.6406 27.3438,-10.6406 C25.3958,-10.6406 21.4089,-8.67188 15.3828,-4.73438 C9.35677,-0.796875 5.82292,1.82292 4.78125,3.125 C3.73958,4.42708 3.21875,5.59896 3.21875,6.64063 C3.21875,7.68229 3.6276,8.60938 4.44531,9.42188 C5.26302,10.2344 6.25521,10.6406 7.42188,10.6406 M26.375,-13.7656 C31.9688,-13.7656 34.7656,-11.3594 34.7656,-6.54688 C34.7656,-4.20313 34.0833,-1.48438 32.7188,1.60938 C31.3542,4.70313 29.5313,7.0625 27.25,8.6875 C22.2396,12.0729 15.9583,13.7656 8.40625,13.7656 C2.80208,13.7656 0,11.3594 0,6.54688 C0,4.40104 0.666667,1.73177 2,-1.46094 C3.33333,-4.65365 5.17188,-7.0625 7.51563,-8.6875 C12.5365,-12.0729 18.8229,-13.7656 26.375,-13.7656"/>
<path class="Clef" transform="matrix(0.992126,0,0,0.992126,162.838,588.189)" d="M57.1328,-8.89063 C56.1589,-9.86979 55.6719,-11.0755 55.6719,-12.5078 C55.6719,-13.9401 56.1589,-15.1432 57.1328,-16.1172 C58.1068,-17.0911 59.3099,-17.5781 60.7422,-17.5781 C62.1745,-17.5781 63.3802,-17.0911 64.3594,-16.1172 C65.3385,-15.1432 65.8281,-13.9401 65.8281,-12.5078 C65.8281,-11.0755 65.3385,-9.86979 64.3594,-8.89063 C63.3802,-7.91146 62.1745,-7.42188 60.7422,-7.42188 C59.3099,-7.42188 58.1068,-7.91146 57.1328,-8.89063 M57.1328,16.1172 C56.1589,15.1432 55.6719,13.9401 55.6719,12.5078 C55.6719,11.0755 56.1589,9.86979 57.1328,8.89063 C58.1068,7.91146 59.3099,7.42188 60.7422,7.42188 C62.1745,7.42188 63.3802,7.91146 64.3594,8.89063 C65.3385,9.86979 65.8281,11.0755 65.8281,12.5078 C65.8281,13.9401 65.3385,15.1432 64.3594,16.1172 C63.3802,17.0911 62.1745,17.5781 60.7422,17.5781 C59.3099,17.5781 58.1068,17.0911 57.1328,16.1172 M23.25,-26.2656 C31.9063,-26.2656 39,-24.0885 44.5313,-19.7344 C49.875,-15.1719 52.5469,-8.98438 52.5469,-1.17188 C52.5469,3.57813 51.5365,8.3151 49.5156,13.0391 C47.4948,17.763 44.8594,21.8802 41.6094,25.3906 C35.6823,31.9635 27.5911,37.9193 17.3359,43.2578 C7.08073,48.5964 1.41667,51.2656 0.34375,51.2656 C-0.729167,51.2656 -1.26563,50.8438 -1.26563,50 C-1.26563,49.6771 -1.13542,49.3854 -0.875,49.125 C2.44792,47.1667 6.09375,44.9193 10.0625,42.3828 C14.0313,39.8464 18.0677,36.8359 22.1719,33.3516 C26.276,29.8672 29.4505,26.6432 31.6953,23.6797 C33.9401,20.7161 36.0052,17.0573 37.8906,12.7031 C39.5156,8.33854 40.3281,4.03646 40.3281,-0.203125 C40.3281,-6.51563 38.7656,-12.0156 35.6406,-16.7031 C32.5156,-21.3906 28.3854,-23.7344 23.25,-23.7344 C19.6042,-23.7344 16.4141,-22.513 13.6797,-20.0703 C10.9453,-17.6276 8.98958,-14.651 7.8125,-11.1406 C9.05208,-11.6615 10.1927,-11.9219 11.2344,-11.9219 C13.9635,-11.9219 16.3047,-10.9115 18.2578,-8.89063 C20.2109,-6.86979 21.1875,-4.49219 21.1875,-1.75781 C21.1875,0.976563 20.2448,3.45313 18.3594,5.67188 C16.3385,7.68229 13.9141,8.6875 11.0859,8.6875 C8.25781,8.6875 5.67188,7.68229 3.32813,5.67188 C1.10938,3.45313 0,0.942708 0,-1.85938 C0,-8.56771 2.26302,-14.3125 6.78906,-19.0938 C11.3151,-23.875 16.8021,-26.2656 23.25,-26.2656"/>
<path class="Clef" transform="matrix(0.992126,0,0,0.992126,162.838,1059.45)" d="M57.1328,-8.89063 C56.1589,-9.86979 55.6719,-11.0755 55.6719,-12.5078 C55.6719,-13.9401 56.1589,-15.1432 57.1328,-16.1172 C58.1068,-17.0911 59.3099,-17.5781 60.7422,-17.5781 C62.1745,-17.5781 63.3802,-17.0911 64.3594,-16.1172 C65.3385,-15.1432 65.8281,-13.9401 65.8281,-12.5078 C65.8281,-11.0755 65.3385,-9.86979 64.3594,-8.89063 C63.3802,-7.91146 62.1745,-7.42188 60.7422,-7.42188 C59.3099,-7.42188 58.1068,-7.91146 57.1328,-8.89063 M57.1328,16.1172 C56.1589,15.1432 55.6719,13.9401 55.6719,12.5078 C55.6719,11.0755 56.1589,9.86979 57.1328,8.89063 C58.1068,7.91146 59.3099,7.42188 60.7422,7.42188 C62.1745,7.42188 63.3802,7.91146 64.3594,8.89063 C65.3385,9.86979 65.8281,11.0755 65.8281,12.5078 C65.8281,13.9401 65.3385,15.1432 64.3594,16.1172 C63.3802,17.0911 62.1745,17.5781 60.7422,17.5781 C59.3099,17.5781 58.1068,17.0911 57.1328,16.1172 M23.25,-26.2656 C31.9063,-26.2656 39,-24.0885 44.5313,-19.7344 C49.875,-15.1719 52.5469,-8.98438 52.5469,-1.17188 C52.5469,3.57813 51.5365,8.3151 49.5156,13.0391 C47.4948,17.763 44.8594,21.8802 41.6094,25.3906 C35.6823,31.9635 27.5911,37.9193 17.3359,43.2578 C7.08073,48.5964 1.41667,51.2656 0.34375,51.2656 C-0.729167,51.2656 -1.26563,50.8438 -1.26563,50 C-1.26563,49.6771 -1.13542,49.3854 -0.875,49.125 C2.44792,47.1667 6.09375,44.9193 10.0625,42.3828 C14.0313,39.8464 18.0677,36.8359 22.1719,33.3516 C26.276,29.8672 29.4505,26.6432 31.6953,23.6797 C33.9401,20.7161 36.0052,17.0573 37.8906,12.7031 C39.5156,8.33854 40.3281,4.03646 40.3281,-0.203125 C40.3281,-6.51563 38.7656,-12.0156 35.6406,-16.7031 C32.5156,-21.3906 28.3854,-23.7344 23.25,-23.7344 C19.6042,-23.7344 16.4141,-22.513 13.6797,-20.0703 C10.9453,-17.6276 8.98958,-14.651 7.8125,-11.1406 C9.05208,-11.6615 10.1927,-11.9219 11.2344,-11.9219 C13.9635,-11.9219 16.3047,-10.9115 18.2578,-8.89063 C20.2109,-6.86979 21.1875,-4.49219 21.1875,-1.75781 C21.1875,0.976563 20.2448,3.45313 18.3594,5.67188 C16.3385,7.68229 13.9141,8.6875 11.0859,8.6875 C8.25781,8.6875 5.67188,7.68229 3.32813,5.67188 C1.10938,3.45313 0,0.942708 0,-1.85938 C0,-8.56771 2.26302,-14.3125 6.78906,-19.0938 C11.3151,-23.875 16.8021,-26.2656 23.25,-26.2656"/>
<path class="KeySig" transform="matrix(0.992126,0,0,0.992126,327.213,612.992)" d="M22.6563,-21.9688 C24.0938,-22.3646 24.8125,-22.0104 24.8125,-20.9063 L24.8125,-13.0938 C24.8125,-12.3125 24.1927,-11.6927 22.9531,-11.2344 L19.7344,-9.96875 L19.7344,4.20313 L22.6563,3.03125 C24.0938,2.63542 24.8125,2.99479 24.8125,4.10938 L24.8125,11.9219 C24.8125,12.7031 24.1927,13.3177 22.9531,13.7656 L19.7344,15.0469 L19.7344,31.25 C19.7344,32.4896 19.2448,33.1094 18.2656,33.1094 C17.2865,33.1094 16.7969,32.4896 16.7969,31.25 L16.7969,16.2188 L7.51563,19.9219 L7.51563,36.0313 C7.51563,37.2708 7.02865,37.8906 6.05469,37.8906 C5.08073,37.8906 4.59375,37.2708 4.59375,36.0313 L4.59375,21.0938 L2.04688,22.1719 C0.682292,22.7552 0,22.3646 0,21 L0,13.2813 C0,12.6354 0.588542,12.0521 1.76563,11.5313 L4.59375,10.3594 L4.59375,-3.90625 L2.04688,-2.82813 C0.682292,-2.24479 0,-2.63542 0,-4 L0,-11.7188 C0,-12.375 0.588542,-12.9635 1.76563,-13.4844 L4.59375,-14.6563 L4.59375,-30.7656 C4.59375,-32.0052 5.08073,-32.625 6.05469,-32.625 C7.02865,-32.625 7.51563,-32.0052 7.51563,-30.7656 L7.51563,-15.8281 L16.7969,-19.625 L16.7969,-35.5469 C16.7969,-36.7865 17.2865,-37.4063 18.2656,-37.4063 C19.2448,-37.4063 19.7344,-36.7865 19.7344,-35.5469 L19.7344,-20.7969 L22.6563,-21.9688 M7.51563,-5.07813 L7.51563,9.1875 L16.7969,5.375 L16.7969,-8.79688 L7.51563,-5.07813 "/>
<path class="KeySig" transform="matrix(0.992126,0,0,0.992126,302.41,575.787)" d="M22.6563,-21.9688 C24.0938,-22.3646 24.8125,-22.0104 24.8125,-20.9063 L24.8125,-13.0938 C24.8125,-12.3125 24.1927,-11.6927 22.9531,-11.2344 L19.7344,-9.96875 L19.7344,4.20313 L22.6563,3.03125 C24.0938,2.63542 24.8125,2.99479 24.8125,4.10938 L24.8125,11.9219 C24.8125,12.7031 24.1927,13.3177 22.9531,13.7656 L19.7344,15.0469 L19.7344,31.25 C19.7344,32.4896 19.2448,33.1094 18.2656,33.1094 C17.2865,33.1094 16.7969,32.4896 16.7969,31.25 L16.7969,16.2188 L7.51563,19.9219 L7.51563,36.0313 C7.51563,37.2708 7.02865,37.8906 6.05469,37.8906 C5.08073,37.8906 4.59375,37.2708 4.59375,36.0313 L4.59375,21.0938 L2.04688,22.1719 C0.682292,22.7552 0,22.3646 0,21 L0,13.2813 C0,12.6354 0.588542,12.0521 1.76563,11.5313 L4.59375,10.3594 L4.59375,-3.90625 L2.04688,-2.82813 C0.682292,-2.24479 0,-2.63542 0,-4 L0,-11.7188 C0,-12.375 0.588542,-12.9635 1.76563,-13.4844 L4.59375,-14.6563 L4.59375,-30.7656 C4.59375,-32.0052 5.08073,-32.625 6.05469,-32.625 C7.02865,-32.625 7.51563,-32.0052 7.51563,-30.7656 L7.51563,-15.8281 L16.7969,-19.625 L16.7969,-35.5469 C16.7969,-36.7865 17.2865,-37.4063 18.2656,-37.4063 C19.2448,-37.4063 19.7344,-36.7865 19.7344,-35.5469 L19.7344,-20.7969 L22.6563,-21.9688 M7.51563,-5.07813 L7.51563,9.1875 L16.7969,5.375 L16.7969,-8.79688 L7.51563,-5.07813 "/>
<path class="KeySig" transform="matrix(0.992126,0,0,0.992126,277.607,625.394)" d="M22.6563,-21.9688 C24.0938,-22.3646 24.8125,-22.0104 24.8125,-20.9063 L24.8125,-13.0938 C24.8125,-12.3125 24.1927,-11.6927 22.9531,-11.2344 L19.7344,-9.96875 L19.7344,4.20313 L22.6563,3.03125 C24.0938,2.63542 24.8125,2.99479 24.8125,4.10938 L24.8125,11.9219 C24.8125,12.7031 24.1927,13.3177 22.9531,13.7656 L19.7344,15.0469 L19.7344,31.25 C19.7344,32.4896 19.2448,33.1094 18.2656,33.1094 C17.2865,33.1094 16.7969,32.4896 16.7969,31.25 L16.7969,16.2188 L7.51563,19.9219 L7.51563,36.0313 C7.51563,37.2708 7.02865,37.8906 6.05469,37.8906 C5.08073,37.8906 4.59375,37.2708 4.59375,36.0313 L4.59375,21.0938 L2.04688,22.1719 C0.682292,22.7552 0,22.3646 0,21 L0,13.2813 C0,12.6354 0.588542,12.0521 1.76563,11.5313 L4.59375,10.3594 L4.59375,-3.90625 L2.04688,-2.82813 C0.682292,-2.24479 0,-2.63542 0,-4 L0,-11.7188 C0,-12.375 0.588542,-12.9635 1.76563,-13.4844 L4.59375,-14.6563 L4.59375,-30.7656 C4.59375,-32.0052 5.08073,-32.625 6.05469,-32.625 C7.02865,-32.625 7.51563,-32.0052 7.51563,-30.7656 L7.51563,-15.8281 L16.7969,-19.625 L16.7969,-35.5469 C16.7969,-36.7865 17.2865,-37.4063 18.2656,-37.4063 C19.2448,-37.4063 19.7344,-36.7865 19.7344,-35.5469 L19.7344,-20.7969 L22.6563,-21.9688 M7.51563,-5.07813 L7.51563,9.1875 L16.7969,5.375 L16.7969,-8.79688 L7.51563,-5.07813 "/>
<path class="KeySig" transform="matrix(0.992126,0,0,0.992126,252.804,588.189)" d="M22.6563,-21.9688 C24.0938,-22.3646 24.8125,-22.0104 24.8125,-20.9063 L24.8125,-13.0938 C24.8125,-12.3125 24.1927,-11.6927 22.9531,-11.2344 L19.7344,-9.96875 L19.7344,4.20313 L22.6563,3.03125 C24.0938,2.63542 24.8125,2.99479 24.8125,4.10938 L24.8125,11.9219 C24.8125,12.7031 24.1927,13.3177 22.9531,13.7656 L19.7344,15.0469 L19.7344,31.25 C19.7344,32.4896 19.2448,33.1094 18.2656,33.1094 C17.2865,33.1094 16.7969,32.4896 16.7969,31.25 L16.7969,16.2188 L7.51563,19.9219 L7.51563,36.0313 C7.51563,37.2708 7.02865,37.8906 6.05469,37.8906 C5.08073,37.8906 4.59375,37.2708 4.59375,36.0313 L4.59375,21.0938 L2.04688,22.1719 C0.682292,22.7552 0,22.3646 0,21 L0,13.2813 C0,12.6354 0.588542,12.0521 1.76563,11.5313 L4.59375,10.3594 L4.59375,-3.90625 L2.04688,-2.82813 C0.682292,-2.24479 0,-2.63542 0,-4 L0,-11.7188 C0,-12.375 0.588542,-12.9635 1.76563,-13.4844 L4.59375,-14.6563 L4.59375,-30.7656 C4.59375,-32.0052 5.08073,-32.625 6.05469,-32.625 C7.02865,-32.625 7.51563,-32.0052 7.51563,-30.7656 L7.51563,-15.8281 L16.7969,-19.625 L16.7969,-35.5469 C16.7969,-36.7865 17.2865,-37.4063 18.2656,-37.4063 C19.2448,-37.4063 19.7344,-36.7865 19.7344,-35.5469 L19.7344,-20.7969 L22.6563,-21.9688 M7.51563,-5.07813 L7.51563,9.1875 L16.7969,5.375 L16.7969,-8.79688 L7.51563,-5.07813 "/>
<path class="KeySig" transform="matrix(0.992126,0,0,0.992126,327.213,1084.25)" d="M22.6563,-21.9688 C24.0938,-22.3646 24.8125,-22.0104 24.8125,-20.9063 L24.8125,-13.0938 C24.8125,-12.3125 24.1927,-11.6927 22.9531,-11.2344 L19.7344,-9.96875 L19.7344,4.20313 L22.6563,3.03125 C24.0938,2.63542 24.8125,2.99479 24.8125,4.10938 L24.8125,11.9219 C24.8125,12.7031 24.1927,13.3177 22.9531,13.7656 L19.7344,15.0469 L19.7344,31.25 C19.7344,32.4896 19.2448,33.1094 18.2656,33.1094 C17.2865,33.1094 16.7969,32.4896 16.7969,31.25 L16.7969,16.2188 L7.51563,19.9219 L7.51563,36.0313 C7.51563,37.2708 7.02865,37.8906 6.05469,37.8906 C5.08073,37.8906 4.59375,37.2708 4.59375,36.0313 L4.59375,21.0938 L2.04688,22.1719 C0.682292,22.7552 0,22.3646 0,21 L0,13.2813 C0,12.6354 0.588542,12.0521 1.76563,11.5313 L4.59375,10.3594 L4.59375,-3.90625 L2.04688,-2.82813 C0.682292,-2.24479 0,-2.63542 0,-4 L0,-11.7188 C0,-12.375 0.588542,-12.9635 1.76563,-13.4844 L4.59375,-14.6563 L4.59375,-30.7656 C4.59375,-32.0052 5.08073,-32.625 6.05469,-32.625 C7.02865,-32.625 7.51563,-32.0052 7.51563,-30.7656 L7.51563,-15.8281 L16.7969,-19.625 L16.7969,-35.5469 C16.7969,-36.7865 17.2865,-37.4063 18.2656,-37.4063 C19.2448,-37.4063 19.7344,-36.7865 19.7344,-35.5469 L19.7344,-20.7969 L22.6563,-21.9688 M7.51563,-5.07813 L7.51563,9.1875 L16.7969,5.375 L16.7969,-8.79688 L7.51563,-5.07813 "/>
<path class="KeySig" transform="matrix(0.992126,0,0,0.992126,302.41,1047.05)" d="M22.6563,-21.9688 C24.0938,-22.3646 24.8125,-22.0104 24.8125,-20.9063 L24.8125,-13.0938 C24.8125,-12.3125 24.1927,-11.6927 22.9531,-11.2344 L19.7344,-9.96875 L19.7344,4.20313 L22.6563,3.03125 C24.0938,2.63542 24.8125,2.99479 24.8125,4.10938 L24.8125,11.9219 C24.8125,12.7031 24.1927,13.3177 22.9531,13.7656 L19.7344,15.0469 L19.7344,31.25 C19.7344,32.4896 19.2448,33.1094 18.2656,33.1094 C17.2865,33.1094 16.7969,32.4896 16.7969,31.25 L16.7969,16.2188 L7.51563,19.9219 L7.51563,36.0313 C7.51563,37.2708 7.02865,37.8906 6.05469,37.8906 C5.08073,37.8906 4.59375,37.2708 4.59375,36.0313 L4.59375,21.0938 L2.04688,22.1719 C0.682292,22.7552 0,22.3646 0,21 L0,13.2813 C0,12.6354 0.588542,12.0521 1.76563,11.5313 L4.59375,10.3594 L4.59375,-3.90625 L2.04688,-2.82813 C0.682292,-2.24479 0,-2.63542 0,-4 L0,-11.7188 C0,-12.375 0.588542,-12.9635 1.76563,-13.4844 L4.59375,-14.6563 L4.59375,-30.7656 C4.59375,-32.0052 5.08073,-32.625 6.05469,-32.625 C7.02865,-32.625 7.51563,-32.0052 7.51563,-30.7656 L7.51563,-15.8281 L16.7969,-19.625 L16.7969,-35.5469 C16.7969,-36.7865 17.2865,-37.4063 18.2656,-37.4063 C19.2448,-37.4063 19.7344,-36.7865 19.7344,-35.5469 L19.7344,-20.7969 L22.6563,-21.9688 M7.51563,-5.07813 L7.51563,9.1875 L16.7969,5.375 L16.7969,-8.79688 L7.51563,-5.07813 "/>
<path class="KeySig" transform="matrix(0.992126,0,0,0.992126,277.607,1096.65)" d="M22.6563,-21.9688 C24.0938,-22.3646 24.8125,-22.0104 24.8125,-20.9063 L24.8125,-13.0938 C24.8125,-12.3125 24.1927,-11.6927 22.9531,-11.2344 L19.7344,-9.96875 L19.7344,4.20313 L22.6563,3.03125 C24.0938,2.63542 24.8125,2.99479 24.8125,4.10938 L24.8125,11.9219 C24.8125,12.7031 24.1927,13.3177 22.9531,13.7656 L19.7344,15.0469 L19.7344,31.25 C19.7344,32.4896 19.2448,33.1094 18.2656,33.1094 C17.2865,33.1094 16.7969,32.4896 16.7969,31.25 L16.7969,16.2188 L7.51563,19.9219 L7.51563,36.0313 C7.51563,37.2708 7.02865,37.8906 6.05469,37.8906 C5.08073,37.8906 4.59375,37.2708 4.59375,36.0313 L4.59375,21.0938 L2.04688,22.1719 C0.682292,22.7552 0,22.3646 0,21 L0,13.2813 C0,12.6354 0.588542,12.0521 1.76563,11.5313 L4.59375,10.3594 L4.59375,-3.90625 L2.04688,-2.82813 C0.682292,-2.24479 0,-2.63542 0,-4 L0,-11.7188 C0,-12.375 0.588542,-12.9635 1.76563,-13.4844 L4.59375,-14.6563 L4.59375,-30.7656 C4.59375,-32.0052 5.08073,-32.625 6.05469,-32.625 C7.02865,-32.625 7.51563,-32.0052 7.51563,-30.7656 L7.51563,-15.8281 L16.7969,-19.625 L16.7969,-35.5469 C16.7969,-36.7865 17.2865,-37.4063 18.2656,-37.4063 C19.2448,-37.4063 19.7344,-36.7865 19.7344,-35.5469 L19.7344,-20.7969 L22.6563,-21.9688 M7.51563,-5.07813 L7.51563,9.1875 L16.7969,5.375 L16.7969,-8.79688 L7.51563,-5.07813 "/>
<path class="KeySig" transform="matrix(0.992126,0,0,0.992126,252.804,1059.45)" d="M22.6563,-21.9688 C24.0938,-22.3646 24.8125,-22.0104 24.8125,-20.9063 L24.8125,-13.0938 C24.8125,-12.3125 24.1927,-11.6927 22.9531,-11.2344 L19.7344,-9.96875 L19.7344,4.20313 L22.6563,3.03125 C24.0938,2.63542 24.8125,2.99479 24.8125,4.10938 L24.8125,11.9219 C24.8125,12.7031 24.1927,13.3177 22.9531,13.7656 L19.7344,15.0469 L19.7344,31.25 C19.7344,32.4896 19.2448,33.1094 18.2656,33.1094 C17.2865,33.1094 16.7969,32.4896 16.7969,31.25 L16.7969,16.2188 L7.51563,19.9219 L7.51563,36.0313 C7.51563,37.2708 7.02865,37.8906 6.05469,37.8906 C5.08073,37.8906 4.59375,37.2708 4.59375,36.0313 L4.59375,21.0938 L2.04688,22.1719 C0.682292,22.7552 0,22.3646 0,21 L0,13.2813 C0,12.6354 0.588542,12.0521 1.76563,11.5313 L4.59375,10.3594 L4.59375,-3.90625 L2.04688,-2.82813 C0.682292,-2.24479 0,-2.63542 0,-4 L0,-11.7188 C0,-12.375 0.588542,-12.9635 1.76563,-13.4844 L4.59375,-14.6563 L4.59375,-30.7656 C4.59375,-32.0052 5.08073,-32.625 6.05469,-32.625 C7.02865,-32.625 7.51563,-32.0052 7.51563,-30.7656 L7.51563,-15.8281 L16.7969,-19.625 L16.7969,-35.5469 C16.7969,-36.7865 17.2865,-37.4063 18.2656,-37.4063 C19.2448,-37.4063 19.7344,-36.7865 19.7344,-35.5469 L19.7344,-20.7969 L22.6563,-21.9688 M7.51563,-5.07813 L7.51563,9.1875 L16.7969,5.375 L16.7969,-8.79688 L7.51563,-5.07813 "/>
<path class="TimeSig" transform="matrix(0.992126,0,0,0.992126,378.277,588.189)" d="M22.8594,25 C20.901,25 19.1406,24.6432 17.5781,23.9297 C16.0156,23.2161 14.8438,22.401 14.0625,21.4844 C12.3021,19.401 10.5104,18.3594 8.6875,18.3594 C6.86458,18.3594 5.38542,18.8646 4.25,19.875 C3.11458,20.8854 2.47917,22.2344 2.34375,23.9219 C2.21875,24.6406 1.79688,25 1.07813,25 C0.359375,25 0,24.6406 0,23.9219 C0,19.4323 2.02083,15.4323 6.0625,11.9219 C8.01042,10.224 9.73438,8.82292 11.2344,7.71875 C12.7344,6.61458 14.5573,5.15104 16.7031,3.32813 C21.2552,-0.588542 23.5313,-5.21354 23.5313,-10.5469 C23.5313,-13.8698 22.9792,-16.7344 21.875,-19.1406 C20.7083,-21.4844 18.9167,-22.6563 16.5,-22.6563 C15.0104,-22.6563 13.7917,-22.3307 12.8438,-21.6797 C11.8958,-21.0286 11.4219,-20.1979 11.4219,-19.1875 C11.4219,-18.1771 12.0078,-16.9896 13.1797,-15.625 C14.3516,-14.2604 14.9375,-13.1198 14.9375,-12.2031 C14.9375,-10.2552 14.2708,-8.61458 12.9375,-7.28125 C11.6042,-5.94792 9.97656,-5.28125 8.05469,-5.28125 C6.13281,-5.28125 4.48958,-5.96354 3.125,-7.32813 C1.82292,-8.75521 1.17188,-10.3802 1.17188,-12.2031 C1.17188,-15.9219 2.66927,-18.9844 5.66406,-21.3906 C8.65885,-23.7969 12.4688,-25 17.0938,-25 C21.7188,-25 25.8854,-23.6667 29.5938,-21 C33.3021,-18.3333 35.1563,-14.849 35.1563,-10.5469 C35.1563,-4.61979 33.1719,-0.385417 29.2031,2.15625 C25.7552,4.36458 22.1094,6.23438 18.2656,7.76563 C14.4219,9.29688 11.75,10.5521 10.25,11.5313 C11.1042,11.3333 11.9844,11.2344 12.8906,11.2344 C15.8177,11.2344 18.9427,12.2109 22.2656,14.1641 C25.5885,16.1172 28.2266,17.0938 30.1797,17.0938 C32.1328,17.0938 33.3698,16.4583 33.8906,15.1875 C34.4115,13.9167 34.9635,13.2813 35.5469,13.2813 C36.3281,13.2813 36.7188,13.6719 36.7188,14.4531 C36.7188,16.276 35.4323,18.4896 32.8594,21.0938 C30.2865,23.6979 26.9531,25 22.8594,25"/>
<path class="TimeSig" transform="matrix(0.992126,0,0,0.992126,376.541,637.881)" d="M23.1484,-23.7344 C24.6432,-23.7344 26.0755,-23.9609 27.4453,-24.4141 C28.8151,-24.8672 29.7917,-25.0938 30.375,-25.0938 C30.9583,-25.0938 31.349,-24.7396 31.5469,-24.0313 C31.5469,-23.9583 31.4792,-23.7604 31.3438,-23.4375 L2.9375,9.57813 L19.625,9.57813 L19.625,-3.51563 C19.625,-5.14063 20.5729,-6.3125 22.4688,-7.03125 C24.4167,-7.75 26.6302,-10.6458 29.1094,-15.7188 C29.2969,-16.1146 29.5885,-16.3125 29.9844,-16.3125 C30.7656,-16.3125 31.2188,-15.8542 31.3438,-14.9375 L31.3438,9.57813 L38.4844,9.57813 C39.3906,9.57813 39.8776,10.0651 39.9453,11.0391 C40.013,12.013 39.526,12.5 38.4844,12.5 L31.3438,12.5 L31.3438,13.2813 C31.3438,15.8854 31.9948,18.099 33.2969,19.9219 C34.7969,21.7448 36.5573,22.6563 38.5781,22.6563 C39.3594,22.6563 39.75,23.0469 39.75,23.8281 C39.75,24.6094 39.2135,25 38.1406,25 C37.0677,25 35.0651,24.7891 32.1328,24.3672 C29.2005,23.9453 26.9375,23.7344 25.3438,23.7344 C23.75,23.7344 21.5365,23.9453 18.7031,24.3672 C15.8698,24.7891 13.7396,25 12.3125,25 C11.5313,25 11.1406,24.6094 11.1406,23.8281 C11.1406,23.0469 11.5313,22.6563 12.3125,22.6563 C14.3229,22.6563 16.0781,21.7448 17.5781,19.9219 C18.9427,18.0365 19.625,15.8229 19.625,13.2813 L19.625,12.5 L2.9375,12.5 C2.08333,12.5 1.34635,12.2734 0.726563,11.8203 C0.106771,11.3672 -0.203125,10.9453 -0.203125,10.5547 C-0.203125,10.1641 0.611979,8.99219 2.24219,7.03906 C3.8724,5.08594 6.20052,1.32552 9.22656,-4.24219 C12.2526,-9.8099 13.7656,-16.2083 13.7656,-23.4375 C13.7656,-24.4792 14.224,-25 15.1406,-25 C15.3385,-25 15.6484,-24.9349 16.0703,-24.8047 C16.4922,-24.6745 17.4036,-24.4635 18.8047,-24.1719 C20.2057,-23.8802 21.6536,-23.7344 23.1484,-23.7344"/>
<path class="Rest" transform="matrix(0.992126,0,0,0.992126,1592.8,612.992)" d="M0.390625,-5.28125 C-0.265625,-6.125 -0.59375,-7.03646 -0.59375,-8.01563 C-0.59375,-9.76563 1.49479,-12.2031 5.67188,-15.3281 C9.76563,-18.526 11.8125,-22.1719 11.8125,-26.2656 C11.8125,-28.6823 10.9688,-30.8958 9.28125,-32.9063 L5.76563,-37.1094 C5.50521,-37.3698 5.375,-37.6953 5.375,-38.0859 C5.375,-38.4766 5.56771,-38.8333 5.95313,-39.1563 C6.41146,-39.4896 6.83594,-39.6563 7.22656,-39.6563 C7.61719,-39.6563 7.94271,-39.4583 8.20313,-39.0625 L23.3438,-21.0938 C23.9896,-20.25 24.3125,-19.3229 24.3125,-18.3125 C24.3125,-17.3021 23.776,-16.2109 22.7031,-15.0391 C21.6302,-13.8672 20.1198,-12.5 18.1719,-10.9375 C16.6719,-10.0313 15.2552,-8.60156 13.9219,-6.64844 C12.5885,-4.69531 11.9219,-2.47917 11.9219,0 C11.9219,2.47917 12.7031,4.66146 14.2656,6.54688 L22.6563,16.4063 C22.8542,16.6042 22.9844,16.9297 23.0469,17.3828 C23.1094,17.8359 22.9453,18.2266 22.5547,18.5547 C22.1641,18.8828 21.8568,19.0469 21.6328,19.0469 C21.4089,19.0469 20.8229,18.6719 19.875,17.9219 C18.9271,17.1719 17.5911,16.4401 15.8672,15.7266 C14.1432,15.013 12.4349,14.6563 10.7422,14.6563 C9.04948,14.6563 7.71615,15.112 6.74219,16.0234 C5.76823,16.9349 5.28125,19.0339 5.28125,22.3203 C5.28125,25.6068 6.22396,28.3906 8.10938,30.6719 C8.30729,30.9323 8.34115,31.224 8.21094,31.5469 C8.08073,31.8698 7.82031,32.0313 7.42969,32.0313 C7.03906,32.0313 6.04427,30.8281 4.44531,28.4219 C2.84635,26.0156 1.3151,23.1667 -0.148438,19.875 C-1.61198,16.5833 -2.34375,13.8333 -2.34375,11.625 C-2.34375,8.82292 -0.911458,7.42188 1.95313,7.42188 C4.81771,7.42188 8.69271,8.46354 13.5781,10.5469 L0.390625,-5.28125 "/>
<path class="Beam" fill-rule="evenodd" d="M470.459,538.864 L538.099,532.353 L538.099,544.812 L470.459,551.323 L470.459,538.864 "/>
<path class="Beam" fill-rule="evenodd" d="M538.099,550.956 L505.359,554.107 L505.359,566.566 L538.099,563.414 L538.099,550.956 "/>
<path class="Beam" fill-rule="evenodd" d="M544.3,656.355 L600.351,662.934 L600.351,675.421 L544.3,668.842 L544.3,656.355 "/>
<path class="Beam" fill-rule="evenodd" d="M712.787,563.6 L803.184,557.169 L803.184,569.602 L712.787,576.032 L712.787,563.6 "/>
<path class="Beam" fill-rule="evenodd" d="M843.545,557.839 L914.851,538.355 L914.851,551.212 L843.545,570.695 L843.545,557.839 "/>
<path class="Beam" fill-rule="evenodd" d="M914.851,556.958 L882.111,565.904 L882.111,578.76 L914.851,569.814 L914.851,556.958 "/>
<path class="Beam" fill-rule="evenodd" d="M968.426,637.726 L1013.01,631.042 L1013.01,643.582 L968.426,650.266 L968.426,637.726 "/>
<path class="Beam" fill-rule="evenodd" d="M1146.1,674.505 L1271.11,725.425 L1271.11,738.816 L1146.1,687.896 L1146.1,674.505 "/>
<path class="Beam" fill-rule="evenodd" d="M1146.1,655.903 L1271.11,706.823 L1271.11,720.214 L1146.1,669.294 L1146.1,655.903 "/>
<path class="Beam" fill-rule="evenodd" d="M1337.91,538.583 L1420.34,538.583 L1420.34,550.984 L1337.91,550.984 L1337.91,538.583 "/>
<path class="Beam" fill-rule="evenodd" d="M1420.34,557.185 L1387.6,557.185 L1387.6,569.587 L1420.34,569.587 L1420.34,557.185 "/>
<path class="Beam" fill-rule="evenodd" d="M1503.34,550.984 L1584.28,550.984 L1584.28,563.386 L1503.34,563.386 L1503.34,550.984 "/>
<path class="Beam" fill-rule="evenodd" d="M1726.32,513.386 L1898.12,532.344 L1898.12,544.821 L1726.32,525.863 L1726.32,513.386 "/>
<path class="Beam" fill-rule="evenodd" d="M1726.32,531.988 L1898.12,550.947 L1898.12,563.423 L1726.32,544.465 L1726.32,531.988 "/>
<path class="Beam" fill-rule="evenodd" d="M1912.68,637.629 L2049.03,605.874 L2049.03,618.608 L1912.68,650.363 L1912.68,637.629 "/>
<path class="Beam" fill-rule="evenodd" d="M2133.55,625.203 L2186.38,638.411 L2186.38,651.194 L2133.55,637.986 L2133.55,625.203 "/>
<path class="Beam" fill-rule="evenodd" d="M2232.76,681.181 L2313.7,674.723 L2313.7,687.164 L2232.76,693.622 L2232.76,681.181 "/>
<path class="Beam" fill-rule="evenodd" d="M2232.76,662.579 L2274.84,659.221 L2274.84,671.662 L2232.76,675.02 L2232.76,662.579 "/>
<path class="Beam" fill-rule="evenodd" d="M2553.55,650.197 L2649.94,650.197 L2649.94,662.598 L2553.55,662.598 L2553.55,650.197 "/>
<path class="Beam" fill-rule="evenodd" d="M2693.29,656.222 L2774.23,675.597 L2774.23,688.349 L2693.29,668.974 L2693.29,656.222 "/>
<path class="Beam" fill-rule="evenodd" d="M2693.29,637.62 L2735.37,647.693 L2735.37,660.445 L2693.29,650.372 L2693.29,637.62 "/>
<path class="Beam" fill-rule="evenodd" d="M690.522,1102.78 L811.275,1121.89 L811.275,1134.45 L690.522,1115.33 L690.522,1102.78 "/>
<path class="Beam" fill-rule="evenodd" d="M811.275,1103.29 L778.535,1098.11 L778.535,1110.66 L811.275,1115.84 L811.275,1103.29 "/>
<path class="Beam" fill-rule="evenodd" d="M868.292,1146.18 L989.045,1127.07 L989.045,1139.63 L868.292,1158.74 L868.292,1146.18 "/>
<path class="Beam" fill-rule="evenodd" d="M989.045,1108.47 L956.305,1113.65 L956.305,1126.21 L989.045,1121.02 L989.045,1108.47 "/>
<path class="Beam" fill-rule="evenodd" d="M1074.83,1108.75 L1155.99,1134.58 L1155.99,1147.59 L1074.83,1121.76 L1074.83,1108.75 "/>
<path class="Beam" fill-rule="evenodd" d="M1260.12,1035.08 L1341.27,1022.17 L1341.27,1034.72 L1260.12,1047.64 L1260.12,1035.08 "/>
<path class="Beam" fill-rule="evenodd" d="M1904.95,1027.54 L2015.66,1053.09 L2015.66,1065.81 L1904.95,1040.27 L1904.95,1027.54 "/>
<path class="Beam" fill-rule="evenodd" d="M1904.95,1046.14 L1961.92,1059.29 L1961.92,1072.01 L1904.95,1058.87 L1904.95,1046.14 "/>
<path class="Beam" fill-rule="evenodd" d="M2127.2,1004.24 L2311.43,960.06 L2311.43,972.814 L2127.2,1016.99 L2127.2,1004.24 "/>
<path class="Beam" fill-rule="evenodd" d="M2127.2,1022.84 L2311.43,978.663 L2311.43,991.416 L2127.2,1035.59 L2127.2,1022.84 "/>
<path class="Beam" fill-rule="evenodd" d="M2368.54,1009.84 L2552.77,1009.84 L2552.77,1022.24 L2368.54,1022.24 L2368.54,1009.84 "/>
<path class="Beam" fill-rule="evenodd" d="M2368.54,1028.44 L2552.77,1028.44 L2552.77,1040.85 L2368.54,1040.85 L2368.54,1028.44 "/>
<path class="Hook" transform="matrix(0.992126,0,0,0.992126,2467.32,675)" d="M22.75,-72.3594 C24.25,-72.3594 25.8307,-69.9349 27.4922,-65.0859 C29.1536,-60.237 29.9844,-55.7943 29.9844,-51.7578 C29.9844,-47.7214 29.0573,-43.8151 27.2031,-40.0391 C25.349,-36.263 23.1198,-32.9427 20.5156,-30.0781 L12.5,-21.0938 C10.0313,-18.2292 7.85156,-14.9427 5.96094,-11.2344 C4.07031,-7.52604 3.125,-3.78125 3.125,0 L0,0 L0,-25 L3.125,-25 C14.0625,-31.9063 20.9323,-38.026 23.7344,-43.3594 C25.099,-45.9635 25.7813,-48.599 25.7813,-51.2656 C25.7813,-57.4531 23.9896,-63.6094 20.4063,-69.7344 L20.4063,-70.125 C20.4063,-70.7083 20.6354,-71.2266 21.0938,-71.6797 C21.5521,-72.1328 22.1042,-72.3594 22.75,-72.3594"/>
<path class="Hook" transform="matrix(0.992126,0,0,0.992126,577.662,1121.46)" d="M22.75,-72.3594 C24.25,-72.3594 25.8307,-69.9349 27.4922,-65.0859 C29.1536,-60.237 29.9844,-55.7943 29.9844,-51.7578 C29.9844,-47.7214 29.0573,-43.8151 27.2031,-40.0391 C25.349,-36.263 23.1198,-32.9427 20.5156,-30.0781 L12.5,-21.0938 C10.0313,-18.2292 7.85156,-14.9427 5.96094,-11.2344 C4.07031,-7.52604 3.125,-3.78125 3.125,0 L0,0 L0,-25 L3.125,-25 C14.0625,-31.9063 20.9323,-38.026 23.7344,-43.3594 C25.099,-45.9635 25.7813,-48.599 25.7813,-51.2656 C25.7813,-57.4531 23.9896,-63.6094 20.4063,-69.7344 L20.4063,-70.125 C20.4063,-70.7083 20.6354,-71.2266 21.0938,-71.6797 C21.5521,-72.1328 22.1042,-72.3594 22.75,-72.3594"/>
<path class="Hook" transform="matrix(0.992126,0,0,0.992126,1651.81,1025.34)" d="M0,25 L0,0 L3.125,0 C3.125,3.70833 3.875,7.5 5.375,11.375 C6.875,15.25 8.4375,18.474 10.0625,21.0469 C11.6875,23.6198 13.7031,26.8594 16.1094,30.7656 C21.3906,39.2969 24.0313,46.8828 24.0313,53.5234 C24.0313,60.1641 22.6302,67 19.8281,74.0313 C19.3073,74.8125 18.7057,75.2031 18.0234,75.2031 C17.3411,75.2031 16.7708,74.974 16.3125,74.5156 C15.8542,74.0573 15.625,73.5365 15.625,72.9531 L15.625,72.4688 C18.4271,66.0208 19.8281,59.6406 19.8281,53.3281 C19.8281,50.0677 18.8359,46.5182 16.8516,42.6797 C14.8672,38.8411 12.8151,35.7005 10.6953,33.2578 C8.57552,30.8151 6.05208,28.0625 3.125,25 L0,25 "/>
<path class="Tuplet" d="M749.483,507.543 C751.535,506.824 753.472,506.277 755.295,505.902 C757.118,505.527 758.795,505.339 760.326,505.339 C763.889,505.339 766.519,506.108 768.217,507.644 C769.915,509.181 770.498,511.319 769.967,514.058 C769.54,516.256 768.493,518.092 766.826,519.566 C765.16,521.04 763.009,522.037 760.373,522.558 C763.269,522.975 765.376,524.058 766.694,525.808 C768.011,527.558 768.394,529.824 767.842,532.605 C767.186,536.011 765.535,538.621 762.889,540.433 C760.243,542.246 756.774,543.152 752.483,543.152 C750.576,543.152 748.756,542.949 747.022,542.543 C745.287,542.136 743.608,541.517 741.983,540.683 L743.358,533.605 L746.092,533.605 C745.79,535.949 746.235,537.725 747.428,538.933 C748.621,540.142 750.498,540.746 753.061,540.746 C755.561,540.746 757.668,540.024 759.381,538.582 C761.095,537.139 762.196,535.162 762.686,532.652 C763.238,529.787 762.918,527.621 761.725,526.152 C760.532,524.683 758.503,523.949 755.639,523.949 L753.311,523.949 L753.795,521.449 L755.014,521.449 C757.868,521.449 760.121,520.86 761.772,519.683 C763.423,518.506 764.483,516.73 764.951,514.355 C765.358,512.22 765.087,510.587 764.139,509.457 C763.191,508.326 761.618,507.761 759.42,507.761 C757.222,507.761 755.415,508.282 753.998,509.324 C752.582,510.365 751.571,511.912 750.967,513.964 L748.233,513.964 L749.483,507.543 "/>
<polyline class="Tuplet" fill="none" stroke="#000000" stroke-width="2.48" stroke-linecap="square" stroke-linejoin="bevel" points="683.357,548.752 683.357,523.949 728.972,523.949"/>
<polyline class="Tuplet" fill="none" stroke="#000000" stroke-width="2.48" stroke-linecap="square" stroke-linejoin="bevel" points="783.775,523.949 815.585,523.949 815.585,548.752"/>
<path class="Tuplet" d="M1535.31,501.962 C1537.36,501.243 1539.3,500.696 1541.12,500.321 C1542.94,499.946 1544.62,499.759 1546.15,499.759 C1549.71,499.759 1552.34,500.527 1554.04,502.063 C1555.74,503.6 1556.32,505.738 1555.79,508.477 C1555.36,510.675 1554.32,512.511 1552.65,513.985 C1550.98,515.459 1548.83,516.457 1546.2,516.977 C1549.09,517.394 1551.2,518.477 1552.52,520.227 C1553.84,521.977 1554.22,524.243 1553.67,527.024 C1553.01,530.431 1551.36,533.04 1548.71,534.852 C1546.07,536.665 1542.6,537.571 1538.31,537.571 C1536.4,537.571 1534.58,537.368 1532.85,536.962 C1531.11,536.556 1529.43,535.936 1527.81,535.102 L1529.18,528.024 L1531.92,528.024 C1531.61,530.368 1532.06,532.144 1533.25,533.352 C1534.44,534.561 1536.32,535.165 1538.88,535.165 C1541.38,535.165 1543.49,534.444 1545.21,533.001 C1546.92,531.558 1548.02,529.582 1548.51,527.071 C1549.06,524.207 1548.74,522.04 1547.55,520.571 C1546.36,519.102 1544.33,518.368 1541.46,518.368 L1539.13,518.368 L1539.62,515.868 L1540.84,515.868 C1543.69,515.868 1545.94,515.28 1547.6,514.102 C1549.25,512.925 1550.31,511.149 1550.78,508.774 C1551.18,506.639 1550.91,505.006 1549.96,503.876 C1549.01,502.746 1547.44,502.181 1545.24,502.181 C1543.05,502.181 1541.24,502.701 1539.82,503.743 C1538.41,504.785 1537.4,506.332 1536.79,508.384 L1534.06,508.384 L1535.31,501.962 "/>
<polyline class="Tuplet" fill="none" stroke="#000000" stroke-width="2.48" stroke-linecap="square" stroke-linejoin="bevel" points="1473.91,543.171 1473.91,518.368 1514.8,518.368"/>
<polyline class="Tuplet" fill="none" stroke="#000000" stroke-width="2.48" stroke-linecap="square" stroke-linejoin="bevel" points="1569.6,518.368 1596.68,518.368 1596.68,543.171"/>
<path class="Tuplet" d="M1972.35,685.629 C1974.4,684.91 1976.34,684.364 1978.16,683.989 C1979.99,683.614 1981.66,683.426 1983.2,683.426 C1986.76,683.426 1989.39,684.194 1991.09,685.731 C1992.78,687.267 1993.37,689.405 1992.84,692.145 C1992.41,694.343 1991.36,696.179 1989.7,697.653 C1988.03,699.127 1985.88,700.124 1983.24,700.645 C1986.14,701.061 1988.25,702.145 1989.56,703.895 C1990.88,705.645 1991.26,707.91 1990.71,710.692 C1990.06,714.098 1988.4,716.707 1985.76,718.52 C1983.11,720.332 1979.64,721.239 1975.35,721.239 C1973.45,721.239 1971.63,721.035 1969.89,720.629 C1968.16,720.223 1966.48,719.603 1964.85,718.77 L1966.23,711.692 L1968.96,711.692 C1968.66,714.035 1969.1,715.811 1970.3,717.02 C1971.49,718.228 1973.37,718.832 1975.93,718.832 C1978.43,718.832 1980.54,718.111 1982.25,716.668 C1983.96,715.226 1985.07,713.249 1985.56,710.739 C1986.11,707.874 1985.79,705.707 1984.59,704.239 C1983.4,702.77 1981.37,702.035 1978.51,702.035 L1976.18,702.035 L1976.66,699.535 L1977.88,699.535 C1980.74,699.535 1982.99,698.947 1984.64,697.77 C1986.29,696.593 1987.35,694.817 1987.82,692.442 C1988.23,690.306 1987.96,688.673 1987.01,687.543 C1986.06,686.413 1984.49,685.848 1982.29,685.848 C1980.09,685.848 1978.28,686.369 1976.87,687.41 C1975.45,688.452 1974.44,689.999 1973.84,692.051 L1971.1,692.051 L1972.35,685.629 "/>
<polyline class="Tuplet" fill="none" stroke="#000000" stroke-width="2.48" stroke-linecap="square" stroke-linejoin="bevel" points="1900.28,677.232 1900.28,702.035 1951.84,702.035"/>
<polyline class="Tuplet" fill="none" stroke="#000000" stroke-width="2.48" stroke-linecap="square" stroke-linejoin="bevel" points="2006.64,702.035 2078.46,702.035 2078.46,677.232"/>
<path class="Tuplet" d="M2593.24,686.435 C2595.29,685.717 2597.23,685.17 2599.05,684.795 C2600.88,684.42 2602.55,684.232 2604.09,684.232 C2607.65,684.232 2610.28,685 2611.98,686.537 C2613.67,688.073 2614.26,690.211 2613.73,692.951 C2613.3,695.149 2612.25,696.985 2610.59,698.459 C2608.92,699.933 2606.77,700.93 2604.13,701.451 C2607.03,701.868 2609.13,702.951 2610.45,704.701 C2611.77,706.451 2612.15,708.717 2611.6,711.498 C2610.94,714.904 2609.29,717.513 2606.65,719.326 C2604,721.138 2600.53,722.045 2596.24,722.045 C2594.34,722.045 2592.51,721.842 2590.78,721.435 C2589.05,721.029 2587.37,720.409 2585.74,719.576 L2587.12,712.498 L2589.85,712.498 C2589.55,714.842 2589.99,716.618 2591.19,717.826 C2592.38,719.034 2594.26,719.638 2596.82,719.638 C2599.32,719.638 2601.43,718.917 2603.14,717.474 C2604.85,716.032 2605.95,714.055 2606.44,711.545 C2607,708.68 2606.68,706.513 2605.48,705.045 C2604.29,703.576 2602.26,702.842 2599.4,702.842 L2597.07,702.842 L2597.55,700.342 L2598.77,700.342 C2601.63,700.342 2603.88,699.753 2605.53,698.576 C2607.18,697.399 2608.24,695.623 2608.71,693.248 C2609.12,691.112 2608.85,689.48 2607.9,688.349 C2606.95,687.219 2605.38,686.654 2603.18,686.654 C2600.98,686.654 2599.17,687.175 2597.76,688.217 C2596.34,689.258 2595.33,690.805 2594.73,692.857 L2591.99,692.857 L2593.24,686.435 "/>
<polyline class="Tuplet" fill="none" stroke="#000000" stroke-width="2.48" stroke-linecap="square" stroke-linejoin="bevel" points="2541.15,678.844 2541.15,703.648 2572.73,703.279"/>
<polyline class="Tuplet" fill="none" stroke="#000000" stroke-width="2.48" stroke-linecap="square" stroke-linejoin="bevel" points="2627.53,702.64 2679.37,702.035 2679.37,677.232"/>
<path class="NoteDot" transform="matrix(0.992126,0,0,0.992126,482.365,625.394)" d="M1.66406,4.00781 C0.554688,2.89844 0,1.5625 0,0 C0,-1.5625 0.554688,-2.89844 1.66406,-4.00781 C2.77344,-5.11719 4.10938,-5.67188 5.67188,-5.67188 C7.23438,-5.67188 8.56771,-5.11719 9.67188,-4.00781 C10.776,-2.89844 11.3281,-1.5625 11.3281,0 C11.3281,1.5625 10.776,2.89844 9.67188,4.00781 C8.56771,5.11719 7.23438,5.67188 5.67188,5.67188 C4.10938,5.67188 2.77344,5.11719 1.66406,4.00781"/>
<path class="NoteDot" transform="matrix(0.992126,0,0,0.992126,855.451,650.197)" d="M1.66406,4.00781 C0.554688,2.89844 0,1.5625 0,0 C0,-1.5625 0.554688,-2.89844 1.66406,-4.00781 C2.77344,-5.11719 4.10938,-5.67188 5.67188,-5.67188 C7.23438,-5.67188 8.56771,-5.11719 9.67188,-4.00781 C10.776,-2.89844 11.3281,-1.5625 11.3281,0 C11.3281,1.5625 10.776,2.89844 9.67188,4.00781 C8.56771,5.11719 7.23438,5.67188 5.67188,5.67188 C4.10938,5.67188 2.77344,5.11719 1.66406,4.00781"/>
<path class="NoteDot" transform="matrix(0.992126,0,0,0.992126,1349.82,625.394)" d="M1.66406,4.00781 C0.554688,2.89844 0,1.5625 0,0 C0,-1.5625 0.554688,-2.89844 1.66406,-4.00781 C2.77344,-5.11719 4.10938,-5.67188 5.67188,-5.67188 C7.23438,-5.67188 8.56771,-5.11719 9.67188,-4.00781 C10.776,-2.89844 11.3281,-1.5625 11.3281,0 C11.3281,1.5625 10.776,2.89844 9.67188,4.00781 C8.56771,5.11719 7.23438,5.67188 5.67188,5.67188 C4.10938,5.67188 2.77344,5.11719 1.66406,4.00781"/>
<path class="NoteDot" transform="matrix(0.992126,0,0,0.992126,2438.04,625.394)" d="M1.66406,4.00781 C0.554688,2.89844 0,1.5625 0,0 C0,-1.5625 0.554688,-2.89844 1.66406,-4.00781 C2.77344,-5.11719 4.10938,-5.67188 5.67188,-5.67188 C7.23438,-5.67188 8.56771,-5.11719 9.67188,-4.00781 C10.776,-2.89844 11.3281,-1.5625 11.3281,0 C11.3281,1.5625 10.776,2.89844 9.67188,4.00781 C8.56771,5.11719 7.23438,5.67188 5.67188,5.67188 C4.10938,5.67188 2.77344,5.11719 1.66406,4.00781"/>
<path class="NoteDot" transform="matrix(0.992126,0,0,0.992126,454.942,1121.46)" d="M1.66406,4.00781 C0.554688,2.89844 0,1.5625 0,0 C0,-1.5625 0.554688,-2.89844 1.66406,-4.00781 C2.77344,-5.11719 4.10938,-5.67188 5.67188,-5.67188 C7.23438,-5.67188 8.56771,-5.11719 9.67188,-4.00781 C10.776,-2.89844 11.3281,-1.5625 11.3281,0 C11.3281,1.5625 10.776,2.89844 9.67188,4.00781 C8.56771,5.11719 7.23438,5.67188 5.67188,5.67188 C4.10938,5.67188 2.77344,5.11719 1.66406,4.00781"/>
<path class="NoteDot" transform="matrix(0.992126,0,0,0.992126,731.858,1022.24)" d="M1.66406,4.00781 C0.554688,2.89844 0,1.5625 0,0 C0,-1.5625 0.554688,-2.89844 1.66406,-4.00781 C2.77344,-5.11719 4.10938,-5.67188 5.67188,-5.67188 C7.23438,-5.67188 8.56771,-5.11719 9.67188,-4.00781 C10.776,-2.89844 11.3281,-1.5625 11.3281,0 C11.3281,1.5625 10.776,2.89844 9.67188,4.00781 C8.56771,5.11719 7.23438,5.67188 5.67188,5.67188 C4.10938,5.67188 2.77344,5.11719 1.66406,4.00781"/>
<path class="NoteDot" transform="matrix(0.992126,0,0,0.992126,909.628,1071.85)" d="M1.66406,4.00781 C0.554688,2.89844 0,1.5625 0,0 C0,-1.5625 0.554688,-2.89844 1.66406,-4.00781 C2.77344,-5.11719 4.10938,-5.67188 5.67188,-5.67188 C7.23438,-5.67188 8.56771,-5.11719 9.67188,-4.00781 C10.776,-2.89844 11.3281,-1.5625 11.3281,0 C11.3281,1.5625 10.776,2.89844 9.67188,4.00781 C8.56771,5.11719 7.23438,5.67188 5.67188,5.67188 C4.10938,5.67188 2.77344,5.11719 1.66406,4.00781"/>
<path class="NoteDot" transform="matrix(0.992126,0,0,0.992126,1456.66,1096.65)" d="M1.66406,4.00781 C0.554688,2.89844 0,1.5625 0,0 C0,-1.5625 0.554688,-2.89844 1.66406,-4.00781 C2.77344,-5.11719 4.10938,-5.67188 5.67188,-5.67188 C7.23438,-5.67188 8.56771,-5.11719 9.67188,-4.00781 C10.776,-2.89844 11.3281,-1.5625 11.3281,0 C11.3281,1.5625 10.776,2.89844 9.67188,4.00781 C8.56771,5.11719 7.23438,5.67188 5.67188,5.67188 C4.10938,5.67188 2.77344,5.11719 1.66406,4.00781"/>
</svg>
